{
  "accessors": [
    {
      "bufferView": 0,
      "componentType": 5126,
      "count": 569,
      "max": [
        0.41999998688697815,
        1.2799999713897705,
        0.41999998688697815
      ],
      "min": [
        -0.41999998688697815,
        0.0,
        -0.5199999809265137
      ],
      "name": "small_buildingC_Material0/POSITION",
      "type": "VEC3"
    },
    {
      "bufferView": 0,
      "byteOffset": 12,
      "componentType": 5126,
      "count": 569,
      "name": "small_buildingC_Material0/NORMAL",
      "type": "VEC3"
    },
    {
      "bufferView": 0,
      "byteOffset": 24,
      "componentType": 5126,
      "count": 569,
      "name": "small_buildingC_Material0/TEXCOORD_0",
      "type": "VEC2"
    },
    {
      "bufferView": 1,
      "componentType": 5123,
      "count": 1155,
      "name": "small_buildingC_Material0/INDICES",
      "type": "SCALAR"
    },
    {
      "bufferView": 2,
      "componentType": 5126,
      "count": 44,
      "max": [
        0.25,
        1.0499999523162842,
        0.3799999952316284
      ],
      "min": [
        -0.3799999952316284,
        0.019999999552965164,
        -0.47999998927116394
      ],
      "name": "small_buildingC_Material0/POSITION",
      "type": "VEC3"
    },
    {
      "bufferView": 2,
      "byteOffset": 12,
      "componentType": 5126,
      "count": 44,
      "name": "small_buildingC_Material0/NORMAL",
      "type": "VEC3"
    },
    {
      "bufferView": 2,
      "byteOffset": 24,
      "componentType": 5126,
      "count": 44,
      "name": "small_buildingC_Material0/TEXCOORD_0",
      "type": "VEC2"
    },
    {
      "bufferView": 3,
      "componentType": 5123,
      "count": 66,
      "name": "small_buildingC_Material0/INDICES",
      "type": "SCALAR"
    },
    {
      "bufferView": 4,
      "componentType": 5126,
      "count": 180,
      "max": [
        0.4000000059604645,
        1.2000000476837158,
        0.4000000059604645
      ],
      "min": [
        -0.4000000059604645,
        0.44999998807907104,
        -0.5
      ],
      "name": "small_buildingC_Material0/POSITION",
      "type": "VEC3"
    },
    {
      "bufferView": 4,
      "byteOffset": 12,
      "componentType": 5126,
      "count": 180,
      "name": "small_buildingC_Material0/NORMAL",
      "type": "VEC3"
    },
    {
      "bufferView": 4,
      "byteOffset": 24,
      "componentType": 5126,
      "count": 180,
      "name": "small_buildingC_Material0/TEXCOORD_0",
      "type": "VEC2"
    },
    {
      "bufferView": 5,
      "componentType": 5123,
      "count": 228,
      "name": "small_buildingC_Material0/INDICES",
      "type": "SCALAR"
    },
    {
      "bufferView": 6,
      "componentType": 5126,
      "count": 97,
      "max": [
        0.4000000059604645,
        1.2000000476837158,
        0.4000000059604645
      ],
      "min": [
        -0.4000000059604645,
        0.0,
        -0.5
      ],
      "name": "small_buildingC_Material0/POSITION",
      "type": "VEC3"
    },
    {
      "bufferView": 6,
      "byteOffset": 12,
      "componentType": 5126,
      "count": 97,
      "name": "small_buildingC_Material0/NORMAL",
      "type": "VEC3"
    },
    {
      "bufferView": 6,
      "byteOffset": 24,
      "componentType": 5126,
      "count": 97,
      "name": "small_buildingC_Material0/TEXCOORD_0",
      "type": "VEC2"
    },
    {
      "bufferView": 7,
      "componentType": 5123,
      "count": 201,
      "name": "small_buildingC_Material0/INDICES",
      "type": "SCALAR"
    }
  ],
  "asset": {
    "copyright": "Copyright (c) 2018-2020 Chukong Technologies Inc.",
    "generator": "FBX-glTF-conv",
    "version": "2.0"
  },
  "bufferViews": [
    {
      "buffer": 0,
      "byteLength": 18208,
      "byteStride": 32,
      "name": "small_buildingC_Material0",
      "target": 34962
    },
    {
      "buffer": 0,
      "byteLength": 2310,
      "byteOffset": 18208,
      "target": 34963
    },
    {
      "buffer": 0,
      "byteLength": 1408,
      "byteOffset": 20518,
      "byteStride": 32,
      "name": "small_buildingC_Material0",
      "target": 34962
    },
    {
      "buffer": 0,
      "byteLength": 132,
      "byteOffset": 21926,
      "target": 34963
    },
    {
      "buffer": 0,
      "byteLength": 5760,
      "byteOffset": 22058,
      "byteStride": 32,
      "name": "small_buildingC_Material0",
      "target": 34962
    },
    {
      "buffer": 0,
      "byteLength": 456,
      "byteOffset": 27818,
      "target": 34963
    },
    {
      "buffer": 0,
      "byteLength": 3104,
      "byteOffset": 28274,
      "byteStride": 32,
      "name": "small_buildingC_Material0",
      "target": 34962
    },
    {
      "buffer": 0,
      "byteLength": 402,
      "byteOffset": 31378,
      "target": 34963
    }
  ],
  "buffers": [
    {
      "byteLength": 31780,
      "uri": "out.bin"
    }
  ],
  "extras": {
    "FBX-glTF-conv": {
      "animationFrameRate": 24.0,
      "fbxFileHeaderInfo": {
        "creationTimeStamp": {
          "day": 13,
          "hour": 13,
          "millisecond": 110,
          "minute": 6,
          "month": 10,
          "second": 48,
          "year": 2021
        },
        "creator": "Model created by Kenney (www.kenney.nl)",
        "sceneInfo": {
          "author": "",
          "comment": "",
          "keywords": "",
          "original": {
            "applicationName": "",
            "applicationVendor": "",
            "applicationVersion": "",
            "fileName": ""
          },
          "revision": "",
          "subject": "",
          "title": "",
          "url": "D:\\Project\\cocos\\Tower\\assets\\城市建筑模型套件\\modules\\small_buildingC.fbx"
        }
      }
    }
  },
  "materials": [
    {
      "extras": {
        "FBX-glTF-conv": {
          "raw": {
            "properties": {
              "ambient": {
                "value": [
                  0.2,
                  0.2,
                  0.2
                ]
              },
              "ambientFactor": {
                "value": 1.0
              },
              "bump": {
                "value": [
                  0.0,
                  0.0,
                  0.0
                ]
              },
              "bumpFactor": {
                "value": 1.0
              },
              "diffuse": {
                "value": [
                  0.5607843,
                  0.5686275,
                  0.6
                ]
              },
              "diffuseFactor": {
                "value": 1.0
              },
              "displacementColor": {
                "value": [
                  0.0,
                  0.0,
                  0.0
                ]
              },
              "displacementFactor": {
                "value": 1.0
              },
              "emissive": {
                "value": [
                  0.0,
                  0.0,
                  0.0
                ]
              },
              "emissiveFactor": {
                "value": 1.0
              },
              "normalMap": {
                "value": [
                  0.0,
                  0.0,
                  0.0
                ]
              },
              "reflection": {
                "value": [
                  0.0,
                  0.0,
                  0.0
                ]
              },
              "reflectionFactor": {
                "value": 1.0
              },
              "shadingModel": "Phong",
              "shininess": {
                "value": 20.0
              },
              "specular": {
                "value": [
                  0.2,
                  0.2,
                  0.2
                ]
              },
              "specularFactor": {
                "value": 1.0
              },
              "transparencyFactor": {
                "value": 0.0
              },
              "transparentColor": {
                "value": [
                  0.0,
                  0.0,
                  0.0
                ]
              },
              "vectorDisplacementColor": {
                "value": [
                  0.0,
                  0.0,
                  0.0
                ]
              },
              "vectorDisplacementFactor": {
                "value": 1.0
              }
            },
            "type": "phong"
          }
        }
      },
      "name": "border"
    },
    {
      "extras": {
        "FBX-glTF-conv": {
          "raw": {
            "properties": {
              "ambient": {
                "value": [
                  0.2,
                  0.2,
                  0.2
                ]
              },
              "ambientFactor": {
                "value": 1.0
              },
              "bump": {
                "value": [
                  0.0,
                  0.0,
                  0.0
                ]
              },
              "bumpFactor": {
                "value": 1.0
              },
              "diffuse": {
                "value": [
                  0.7372549,
                  0.8862745,
                  1.0
                ]
              },
              "diffuseFactor": {
                "value": 1.0
              },
              "displacementColor": {
                "value": [
                  0.0,
                  0.0,
                  0.0
                ]
              },
              "displacementFactor": {
                "value": 1.0
              },
              "emissive": {
                "value": [
                  0.0,
                  0.0,
                  0.0
                ]
              },
              "emissiveFactor": {
                "value": 1.0
              },
              "normalMap": {
                "value": [
                  0.0,
                  0.0,
                  0.0
                ]
              },
              "reflection": {
                "value": [
                  0.0,
                  0.0,
                  0.0
                ]
              },
              "reflectionFactor": {
                "value": 1.0
              },
              "shadingModel": "Phong",
              "shininess": {
                "value": 20.0
              },
              "specular": {
                "value": [
                  0.2,
                  0.2,
                  0.2
                ]
              },
              "specularFactor": {
                "value": 1.0
              },
              "transparencyFactor": {
                "value": 0.0
              },
              "transparentColor": {
                "value": [
                  0.0,
                  0.0,
                  0.0
                ]
              },
              "vectorDisplacementColor": {
                "value": [
                  0.0,
                  0.0,
                  0.0
                ]
              },
              "vectorDisplacementFactor": {
                "value": 1.0
              }
            },
            "type": "phong"
          }
        }
      },
      "name": "window"
    },
    {
      "extras": {
        "FBX-glTF-conv": {
          "raw": {
            "properties": {
              "ambient": {
                "value": [
                  0.2,
                  0.2,
                  0.2
                ]
              },
              "ambientFactor": {
                "value": 1.0
              },
              "bump": {
                "value": [
                  0.0,
                  0.0,
                  0.0
                ]
              },
              "bumpFactor": {
                "value": 1.0
              },
              "diffuse": {
                "value": [
                  0.764151,
                  0.764151,
                  0.764151
                ]
              },
              "diffuseFactor": {
                "value": 1.0
              },
              "displacementColor": {
                "value": [
                  0.0,
                  0.0,
                  0.0
                ]
              },
              "displacementFactor": {
                "value": 1.0
              },
              "emissive": {
                "value": [
                  0.0,
                  0.0,
                  0.0
                ]
              },
              "emissiveFactor": {
                "value": 1.0
              },
              "normalMap": {
                "value": [
                  0.0,
                  0.0,
                  0.0
                ]
              },
              "reflection": {
                "value": [
                  0.0,
                  0.0,
                  0.0
                ]
              },
              "reflectionFactor": {
                "value": 1.0
              },
              "shadingModel": "Phong",
              "shininess": {
                "value": 20.0
              },
              "specular": {
                "value": [
                  0.2,
                  0.2,
                  0.2
                ]
              },
              "specularFactor": {
                "value": 1.0
              },
              "transparencyFactor": {
                "value": 0.0
              },
              "transparentColor": {
                "value": [
                  0.0,
                  0.0,
                  0.0
                ]
              },
              "vectorDisplacementColor": {
                "value": [
                  0.0,
                  0.0,
                  0.0
                ]
              },
              "vectorDisplacementFactor": {
                "value": 1.0
              }
            },
            "type": "phong"
          }
        }
      },
      "name": "_defaultMat"
    },
    {
      "extras": {
        "FBX-glTF-conv": {
          "raw": {
            "properties": {
              "ambient": {
                "value": [
                  0.2,
                  0.2,
                  0.2
                ]
              },
              "ambientFactor": {
                "value": 1.0
              },
              "bump": {
                "value": [
                  0.0,
                  0.0,
                  0.0
                ]
              },
              "bumpFactor": {
                "value": 1.0
              },
              "diffuse": {
                "value": [
                  0.3882353,
                  0.4,
                  0.4470588
                ]
              },
              "diffuseFactor": {
                "value": 1.0
              },
              "displacementColor": {
                "value": [
                  0.0,
                  0.0,
                  0.0
                ]
              },
              "displacementFactor": {
                "value": 1.0
              },
              "emissive": {
                "value": [
                  0.0,
                  0.0,
                  0.0
                ]
              },
              "emissiveFactor": {
                "value": 1.0
              },
              "normalMap": {
                "value": [
                  0.0,
                  0.0,
                  0.0
                ]
              },
              "reflection": {
                "value": [
                  0.0,
                  0.0,
                  0.0
                ]
              },
              "reflectionFactor": {
                "value": 1.0
              },
              "shadingModel": "Phong",
              "shininess": {
                "value": 20.0
              },
              "specular": {
                "value": [
                  0.2,
                  0.2,
                  0.2
                ]
              },
              "specularFactor": {
                "value": 1.0
              },
              "transparencyFactor": {
                "value": 0.0
              },
              "transparentColor": {
                "value": [
                  0.0,
                  0.0,
                  0.0
                ]
              },
              "vectorDisplacementColor": {
                "value": [
                  0.0,
                  0.0,
                  0.0
                ]
              },
              "vectorDisplacementFactor": {
                "value": 1.0
              }
            },
            "type": "phong"
          }
        }
      },
      "name": "door"
    }
  ],
  "meshes": [
    {
      "name": "small_buildingC_Material0",
      "primitives": [
        {
          "attributes": {
            "NORMAL": 1,
            "POSITION": 0,
            "TEXCOORD_0": 2
          },
          "indices": 3,
          "material": 0
        },
        {
          "attributes": {
            "NORMAL": 5,
            "POSITION": 4,
            "TEXCOORD_0": 6
          },
          "indices": 7,
          "material": 1
        },
        {
          "attributes": {
            "NORMAL": 9,
            "POSITION": 8,
            "TEXCOORD_0": 10
          },
          "indices": 11,
          "material": 2
        },
        {
          "attributes": {
            "NORMAL": 13,
            "POSITION": 12,
            "TEXCOORD_0": 14
          },
          "indices": 15,
          "material": 3
        }
      ]
    }
  ],
  "nodes": [
    {
      "mesh": 0,
      "name": "small_buildingC"
    }
  ],
  "scenes": [
    {
      "nodes": [
        0
      ]
    }
  ]
}