{
  "accessors": [
    {
      "bufferView": 0,
      "componentType": 5126,
      "count": 67,
      "max": [
        0.0,
        7.0,
        10.0
      ],
      "min": [
        -10.5,
        0.0,
        0.0
      ],
      "name": "pitsGarageCorner_Material0/POSITION",
      "type": "VEC3"
    },
    {
      "bufferView": 0,
      "byteOffset": 12,
      "componentType": 5126,
      "count": 67,
      "name": "pitsGarageCorner_Material0/NORMAL",
      "type": "VEC3"
    },
    {
      "bufferView": 0,
      "byteOffset": 24,
      "componentType": 5126,
      "count": 67,
      "name": "pitsGarageCorner_Material0/TEXCOORD_0",
      "type": "VEC2"
    },
    {
      "bufferView": 1,
      "componentType": 5123,
      "count": 129,
      "name": "pitsGarageCorner_Material0/INDICES",
      "type": "SCALAR"
    },
    {
      "bufferView": 2,
      "componentType": 5126,
      "count": 18,
      "max": [
        0.0,
        7.0,
        10.0
      ],
      "min": [
        -10.0,
        0.0,
        0.0
      ],
      "name": "pitsGarageCorner_Material0/POSITION",
      "type": "VEC3"
    },
    {
      "bufferView": 2,
      "byteOffset": 12,
      "componentType": 5126,
      "count": 18,
      "name": "pitsGarageCorner_Material0/NORMAL",
      "type": "VEC3"
    },
    {
      "bufferView": 2,
      "byteOffset": 24,
      "componentType": 5126,
      "count": 18,
      "name": "pitsGarageCorner_Material0/TEXCOORD_0",
      "type": "VEC2"
    },
    {
      "bufferView": 3,
      "componentType": 5123,
      "count": 18,
      "name": "pitsGarageCorner_Material0/INDICES",
      "type": "SCALAR"
    },
    {
      "bufferView": 4,
      "componentType": 5126,
      "count": 16,
      "max": [
        -9.58234977722168,
        1.3709900379180908,
        0.4176503121852875
      ],
      "min": [
        -10.0,
        3.609556789341316e-15,
        0.0
      ],
      "name": "pitsGarageCorner_Material0/POSITION",
      "type": "VEC3"
    },
    {
      "bufferView": 4,
      "byteOffset": 12,
      "componentType": 5126,
      "count": 16,
      "name": "pitsGarageCorner_Material0/NORMAL",
      "type": "VEC3"
    },
    {
      "bufferView": 4,
      "byteOffset": 24,
      "componentType": 5126,
      "count": 16,
      "name": "pitsGarageCorner_Material0/TEXCOORD_0",
      "type": "VEC2"
    },
    {
      "bufferView": 5,
      "componentType": 5123,
      "count": 24,
      "name": "pitsGarageCorner_Material0/INDICES",
      "type": "SCALAR"
    },
    {
      "bufferView": 6,
      "componentType": 5126,
      "count": 68,
      "max": [
        -1.0657190084457397,
        3.0999999046325684,
        8.143387794494629
      ],
      "min": [
        -10.0,
        0.0,
        0.0
      ],
      "name": "pitsGarageCorner_Material0/POSITION",
      "type": "VEC3"
    },
    {
      "bufferView": 6,
      "byteOffset": 12,
      "componentType": 5126,
      "count": 68,
      "name": "pitsGarageCorner_Material0/NORMAL",
      "type": "VEC3"
    },
    {
      "bufferView": 6,
      "byteOffset": 24,
      "componentType": 5126,
      "count": 68,
      "name": "pitsGarageCorner_Material0/TEXCOORD_0",
      "type": "VEC2"
    },
    {
      "bufferView": 7,
      "componentType": 5123,
      "count": 138,
      "name": "pitsGarageCorner_Material0/INDICES",
      "type": "SCALAR"
    },
    {
      "bufferView": 8,
      "componentType": 5126,
      "count": 12,
      "max": [
        -1.3919240236282349,
        2.7737948894500732,
        7.8171820640563965
      ],
      "min": [
        -9.799999237060547,
        0.32620519399642944,
        0.20000000298023224
      ],
      "name": "pitsGarageCorner_Material0/POSITION",
      "type": "VEC3"
    },
    {
      "bufferView": 8,
      "byteOffset": 12,
      "componentType": 5126,
      "count": 12,
      "name": "pitsGarageCorner_Material0/NORMAL",
      "type": "VEC3"
    },
    {
      "bufferView": 8,
      "byteOffset": 24,
      "componentType": 5126,
      "count": 12,
      "name": "pitsGarageCorner_Material0/TEXCOORD_0",
      "type": "VEC2"
    },
    {
      "bufferView": 9,
      "componentType": 5123,
      "count": 18,
      "name": "pitsGarageCorner_Material0/INDICES",
      "type": "SCALAR"
    }
  ],
  "asset": {
    "copyright": "Copyright (c) 2018-2020 Chukong Technologies Inc.",
    "generator": "FBX-glTF-conv",
    "version": "2.0"
  },
  "bufferViews": [
    {
      "buffer": 0,
      "byteLength": 2144,
      "byteStride": 32,
      "name": "pitsGarageCorner_Material0",
      "target": 34962
    },
    {
      "buffer": 0,
      "byteLength": 258,
      "byteOffset": 2144,
      "target": 34963
    },
    {
      "buffer": 0,
      "byteLength": 576,
      "byteOffset": 2402,
      "byteStride": 32,
      "name": "pitsGarageCorner_Material0",
      "target": 34962
    },
    {
      "buffer": 0,
      "byteLength": 36,
      "byteOffset": 2978,
      "target": 34963
    },
    {
      "buffer": 0,
      "byteLength": 512,
      "byteOffset": 3014,
      "byteStride": 32,
      "name": "pitsGarageCorner_Material0",
      "target": 34962
    },
    {
      "buffer": 0,
      "byteLength": 48,
      "byteOffset": 3526,
      "target": 34963
    },
    {
      "buffer": 0,
      "byteLength": 2176,
      "byteOffset": 3574,
      "byteStride": 32,
      "name": "pitsGarageCorner_Material0",
      "target": 34962
    },
    {
      "buffer": 0,
      "byteLength": 276,
      "byteOffset": 5750,
      "target": 34963
    },
    {
      "buffer": 0,
      "byteLength": 384,
      "byteOffset": 6026,
      "byteStride": 32,
      "name": "pitsGarageCorner_Material0",
      "target": 34962
    },
    {
      "buffer": 0,
      "byteLength": 36,
      "byteOffset": 6410,
      "target": 34963
    }
  ],
  "buffers": [
    {
      "byteLength": 6446,
      "uri": "out.bin"
    }
  ],
  "extras": {
    "FBX-glTF-conv": {
      "animationFrameRate": 24.0,
      "fbxFileHeaderInfo": {
        "creationTimeStamp": {
          "day": 7,
          "hour": 0,
          "millisecond": 490,
          "minute": 25,
          "month": 11,
          "second": 1,
          "year": 2018
        },
        "creator": "Model created by Kenney (www.kenney.nl)",
        "sceneInfo": {
          "author": "",
          "comment": "",
          "keywords": "",
          "original": {
            "applicationName": "",
            "applicationVendor": "",
            "applicationVersion": "",
            "fileName": ""
          },
          "revision": "",
          "subject": "",
          "title": "",
          "url": "D:\\Project\\cocos\\Tower\\assets\\3d赛道赛车素材\\3D赛道模型\\FBX format\\pitsGarageCorner.fbx"
        }
      }
    }
  },
  "materials": [
    {
      "extras": {
        "FBX-glTF-conv": {
          "raw": {
            "properties": {
              "ambient": {
                "value": [
                  0.2,
                  0.2,
                  0.2
                ]
              },
              "ambientFactor": {
                "value": 0.0
              },
              "bump": {
                "value": [
                  0.0,
                  0.0,
                  0.0
                ]
              },
              "bumpFactor": {
                "value": 1.0
              },
              "diffuse": {
                "value": [
                  0.945098,
                  0.9490196,
                  0.9647059
                ]
              },
              "diffuseFactor": {
                "value": 1.0
              },
              "displacementColor": {
                "value": [
                  0.0,
                  0.0,
                  0.0
                ]
              },
              "displacementFactor": {
                "value": 1.0
              },
              "emissive": {
                "value": [
                  0.0,
                  0.0,
                  0.0
                ]
              },
              "emissiveFactor": {
                "value": 0.0
              },
              "normalMap": {
                "value": [
                  0.0,
                  0.0,
                  0.0
                ]
              },
              "reflection": {
                "value": [
                  0.0,
                  0.0,
                  0.0
                ]
              },
              "reflectionFactor": {
                "value": 1.0
              },
              "shadingModel": "Phong",
              "shininess": {
                "value": 20.0
              },
              "specular": {
                "value": [
                  0.2,
                  0.2,
                  0.2
                ]
              },
              "specularFactor": {
                "value": 1.0
              },
              "transparencyFactor": {
                "value": 0.0
              },
              "transparentColor": {
                "value": [
                  0.0,
                  0.0,
                  0.0
                ]
              },
              "vectorDisplacementColor": {
                "value": [
                  0.0,
                  0.0,
                  0.0
                ]
              },
              "vectorDisplacementFactor": {
                "value": 1.0
              }
            },
            "type": "phong"
          }
        }
      },
      "name": "grey"
    },
    {
      "extras": {
        "FBX-glTF-conv": {
          "raw": {
            "properties": {
              "ambient": {
                "value": [
                  0.2,
                  0.2,
                  0.2
                ]
              },
              "ambientFactor": {
                "value": 0.0
              },
              "bump": {
                "value": [
                  0.0,
                  0.0,
                  0.0
                ]
              },
              "bumpFactor": {
                "value": 1.0
              },
              "diffuse": {
                "value": [
                  1.0,
                  1.0,
                  1.0
                ]
              },
              "diffuseFactor": {
                "value": 1.0
              },
              "displacementColor": {
                "value": [
                  0.0,
                  0.0,
                  0.0
                ]
              },
              "displacementFactor": {
                "value": 1.0
              },
              "emissive": {
                "value": [
                  0.0,
                  0.0,
                  0.0
                ]
              },
              "emissiveFactor": {
                "value": 0.0
              },
              "normalMap": {
                "value": [
                  0.0,
                  0.0,
                  0.0
                ]
              },
              "reflection": {
                "value": [
                  0.0,
                  0.0,
                  0.0
                ]
              },
              "reflectionFactor": {
                "value": 1.0
              },
              "shadingModel": "Phong",
              "shininess": {
                "value": 20.0
              },
              "specular": {
                "value": [
                  0.2,
                  0.2,
                  0.2
                ]
              },
              "specularFactor": {
                "value": 1.0
              },
              "transparencyFactor": {
                "value": 0.0
              },
              "transparentColor": {
                "value": [
                  0.0,
                  0.0,
                  0.0
                ]
              },
              "vectorDisplacementColor": {
                "value": [
                  0.0,
                  0.0,
                  0.0
                ]
              },
              "vectorDisplacementFactor": {
                "value": 1.0
              }
            },
            "type": "phong"
          }
        }
      },
      "name": "_defaultMat"
    },
    {
      "extras": {
        "FBX-glTF-conv": {
          "raw": {
            "properties": {
              "ambient": {
                "value": [
                  0.2,
                  0.2,
                  0.2
                ]
              },
              "ambientFactor": {
                "value": 0.0
              },
              "bump": {
                "value": [
                  0.0,
                  0.0,
                  0.0
                ]
              },
              "bumpFactor": {
                "value": 1.0
              },
              "diffuse": {
                "value": [
                  0.9098039,
                  0.3333333,
                  0.3254902
                ]
              },
              "diffuseFactor": {
                "value": 1.0
              },
              "displacementColor": {
                "value": [
                  0.0,
                  0.0,
                  0.0
                ]
              },
              "displacementFactor": {
                "value": 1.0
              },
              "emissive": {
                "value": [
                  0.0,
                  0.0,
                  0.0
                ]
              },
              "emissiveFactor": {
                "value": 0.0
              },
              "normalMap": {
                "value": [
                  0.0,
                  0.0,
                  0.0
                ]
              },
              "reflection": {
                "value": [
                  0.0,
                  0.0,
                  0.0
                ]
              },
              "reflectionFactor": {
                "value": 1.0
              },
              "shadingModel": "Phong",
              "shininess": {
                "value": 20.0
              },
              "specular": {
                "value": [
                  0.2,
                  0.2,
                  0.2
                ]
              },
              "specularFactor": {
                "value": 1.0
              },
              "transparencyFactor": {
                "value": 0.0
              },
              "transparentColor": {
                "value": [
                  0.0,
                  0.0,
                  0.0
                ]
              },
              "vectorDisplacementColor": {
                "value": [
                  0.0,
                  0.0,
                  0.0
                ]
              },
              "vectorDisplacementFactor": {
                "value": 1.0
              }
            },
            "type": "phong"
          }
        }
      },
      "name": "red"
    },
    {
      "extras": {
        "FBX-glTF-conv": {
          "raw": {
            "properties": {
              "ambient": {
                "value": [
                  0.2,
                  0.2,
                  0.2
                ]
              },
              "ambientFactor": {
                "value": 0.0
              },
              "bump": {
                "value": [
                  0.0,
                  0.0,
                  0.0
                ]
              },
              "bumpFactor": {
                "value": 1.0
              },
              "diffuse": {
                "value": [
                  0.2666667,
                  0.2666667,
                  0.2666667
                ]
              },
              "diffuseFactor": {
                "value": 1.0
              },
              "displacementColor": {
                "value": [
                  0.0,
                  0.0,
                  0.0
                ]
              },
              "displacementFactor": {
                "value": 1.0
              },
              "emissive": {
                "value": [
                  0.0,
                  0.0,
                  0.0
                ]
              },
              "emissiveFactor": {
                "value": 0.0
              },
              "normalMap": {
                "value": [
                  0.0,
                  0.0,
                  0.0
                ]
              },
              "reflection": {
                "value": [
                  0.0,
                  0.0,
                  0.0
                ]
              },
              "reflectionFactor": {
                "value": 1.0
              },
              "shadingModel": "Phong",
              "shininess": {
                "value": 20.0
              },
              "specular": {
                "value": [
                  0.2,
                  0.2,
                  0.2
                ]
              },
              "specularFactor": {
                "value": 1.0
              },
              "transparencyFactor": {
                "value": 0.0
              },
              "transparentColor": {
                "value": [
                  0.0,
                  0.0,
                  0.0
                ]
              },
              "vectorDisplacementColor": {
                "value": [
                  0.0,
                  0.0,
                  0.0
                ]
              },
              "vectorDisplacementFactor": {
                "value": 1.0
              }
            },
            "type": "phong"
          }
        }
      },
      "name": "road"
    },
    {
      "extras": {
        "FBX-glTF-conv": {
          "raw": {
            "properties": {
              "ambient": {
                "value": [
                  0.2,
                  0.2,
                  0.2
                ]
              },
              "ambientFactor": {
                "value": 0.0
              },
              "bump": {
                "value": [
                  0.0,
                  0.0,
                  0.0
                ]
              },
              "bumpFactor": {
                "value": 1.0
              },
              "diffuse": {
                "value": [
                  0.2980392,
                  0.3764706,
                  0.4666667
                ]
              },
              "diffuseFactor": {
                "value": 1.0
              },
              "displacementColor": {
                "value": [
                  0.0,
                  0.0,
                  0.0
                ]
              },
              "displacementFactor": {
                "value": 1.0
              },
              "emissive": {
                "value": [
                  0.0,
                  0.0,
                  0.0
                ]
              },
              "emissiveFactor": {
                "value": 0.0
              },
              "normalMap": {
                "value": [
                  0.0,
                  0.0,
                  0.0
                ]
              },
              "reflection": {
                "value": [
                  0.0,
                  0.0,
                  0.0
                ]
              },
              "reflectionFactor": {
                "value": 1.0
              },
              "shadingModel": "Phong",
              "shininess": {
                "value": 20.0
              },
              "specular": {
                "value": [
                  0.2,
                  0.2,
                  0.2
                ]
              },
              "specularFactor": {
                "value": 1.0
              },
              "transparencyFactor": {
                "value": 0.0
              },
              "transparentColor": {
                "value": [
                  0.0,
                  0.0,
                  0.0
                ]
              },
              "vectorDisplacementColor": {
                "value": [
                  0.0,
                  0.0,
                  0.0
                ]
              },
              "vectorDisplacementFactor": {
                "value": 1.0
              }
            },
            "type": "phong"
          }
        }
      },
      "name": "glass"
    }
  ],
  "meshes": [
    {
      "name": "pitsGarageCorner_Material0",
      "primitives": [
        {
          "attributes": {
            "NORMAL": 1,
            "POSITION": 0,
            "TEXCOORD_0": 2
          },
          "indices": 3,
          "material": 0
        },
        {
          "attributes": {
            "NORMAL": 5,
            "POSITION": 4,
            "TEXCOORD_0": 6
          },
          "indices": 7,
          "material": 1
        },
        {
          "attributes": {
            "NORMAL": 9,
            "POSITION": 8,
            "TEXCOORD_0": 10
          },
          "indices": 11,
          "material": 2
        },
        {
          "attributes": {
            "NORMAL": 13,
            "POSITION": 12,
            "TEXCOORD_0": 14
          },
          "indices": 15,
          "material": 3
        },
        {
          "attributes": {
            "NORMAL": 17,
            "POSITION": 16,
            "TEXCOORD_0": 18
          },
          "indices": 19,
          "material": 4
        }
      ]
    }
  ],
  "nodes": [
    {
      "mesh": 0,
      "name": "pitsGarageCorner",
      "translation": [
        3.5,
        -0.09999998658895493,
        6.5
      ]
    }
  ],
  "scenes": [
    {
      "nodes": [
        0
      ]
    }
  ]
}