{
  "accessors": [
    {
      "bufferView": 0,
      "componentType": 5126,
      "count": 34,
      "max": [
        0.5456427335739136,
        0.518750011920929,
        0.5
      ],
      "min": [
        -0.5456427335739136,
        -4.51194631754889e-17,
        -0.5
      ],
      "name": "Scene/POSITION",
      "type": "VEC3"
    },
    {
      "bufferView": 0,
      "byteOffset": 12,
      "componentType": 5126,
      "count": 34,
      "name": "Scene/NORMAL",
      "type": "VEC3"
    },
    {
      "bufferView": 0,
      "byteOffset": 24,
      "componentType": 5126,
      "count": 34,
      "name": "Scene/TEXCOORD_0",
      "type": "VEC2"
    },
    {
      "bufferView": 1,
      "componentType": 5123,
      "count": 48,
      "name": "Scene/INDICES",
      "type": "SCALAR"
    }
  ],
  "asset": {
    "copyright": "Copyright (c) 2018-2020 Chukong Technologies Inc.",
    "generator": "FBX-glTF-conv",
    "version": "2.0"
  },
  "bufferViews": [
    {
      "buffer": 0,
      "byteLength": 1088,
      "byteStride": 32,
      "name": "Scene",
      "target": 34962
    },
    {
      "buffer": 0,
      "byteLength": 96,
      "byteOffset": 1088,
      "target": 34963
    }
  ],
  "buffers": [
    {
      "byteLength": 1184,
      "uri": "out.bin"
    }
  ],
  "extras": {
    "FBX-glTF-conv": {
      "animationFrameRate": 30.0,
      "fbxFileHeaderInfo": {
        "creationTimeStamp": {
          "day": 8,
          "hour": 14,
          "millisecond": 170,
          "minute": 2,
          "month": 2,
          "second": 0,
          "year": 2024
        },
        "creator": "FBX SDK/FBX Plugins version 2020.3.2",
        "sceneInfo": {
          "author": "Unity Technologies",
          "comment": "",
          "keywords": "Nodes Meshes Materials Textures Cameras Lights Skins Animation",
          "original": {
            "applicationName": "Unity FBX Exporter",
            "applicationVendor": "",
            "applicationVersion": "5.0.0",
            "fileName": ""
          },
          "revision": "1.0",
          "subject": "",
          "title": "Created by FBX Exporter from Unity Technologies",
          "url": "D:\\Project\\cocos\\test\\assets\\model\\buildings\\roof-gable-end.fbx"
        }
      }
    }
  },
  "images": [
    {
      "extras": {
        "FBX-glTF-conv": {
          "fileName": "D:\\Project\\cocos\\test\\assets\\model\\buildings\\Textures\\colormap.png",
          "relativeFileName": "Textures\\colormap.png"
        }
      },
      "name": "DiffuseColor_Texture",
      "uri": "colormap.png"
    }
  ],
  "materials": [
    {
      "extras": {
        "FBX-glTF-conv": {
          "raw": {
            "properties": {
              "ambient": {
                "value": [
                  0.0,
                  0.0,
                  0.0
                ]
              },
              "ambientFactor": {
                "value": 1.0
              },
              "bump": {
                "value": [
                  0.0,
                  0.0,
                  0.0
                ]
              },
              "bumpFactor": {
                "value": 0.0
              },
              "diffuse": {
                "texture": {
                  "index": 0
                },
                "value": [
                  1.0,
                  1.0,
                  1.0
                ]
              },
              "diffuseFactor": {
                "value": 1.0
              },
              "displacementColor": {
                "value": [
                  0.0,
                  0.0,
                  0.0
                ]
              },
              "displacementFactor": {
                "value": 1.0
              },
              "emissive": {
                "value": [
                  0.0,
                  0.0,
                  0.0
                ]
              },
              "emissiveFactor": {
                "value": 1.0
              },
              "normalMap": {
                "value": [
                  0.0,
                  0.0,
                  0.0
                ]
              },
              "shadingModel": "Lambert",
              "transparencyFactor": {
                "value": 0.0
              },
              "transparentColor": {
                "value": [
                  0.0,
                  0.0,
                  0.0
                ]
              },
              "vectorDisplacementColor": {
                "value": [
                  0.0,
                  0.0,
                  0.0
                ]
              },
              "vectorDisplacementFactor": {
                "value": 1.0
              }
            },
            "type": "lambert"
          }
        }
      },
      "name": "colormap"
    }
  ],
  "meshes": [
    {
      "name": "Scene",
      "primitives": [
        {
          "attributes": {
            "NORMAL": 1,
            "POSITION": 0,
            "TEXCOORD_0": 2
          },
          "indices": 3,
          "material": 0
        }
      ]
    }
  ],
  "nodes": [
    {
      "mesh": 0,
      "name": "roof_gable_end"
    }
  ],
  "samplers": [
    {}
  ],
  "scenes": [
    {
      "name": "Scene",
      "nodes": [
        0
      ]
    }
  ],
  "textures": [
    {
      "name": "DiffuseColor_Texture",
      "sampler": 0,
      "source": 0
    }
  ]
}