{
  "accessors": [
    {
      "bufferView": 0,
      "componentType": 5126,
      "count": 3309,
      "max": [
        0.037000685930252075,
        0.03554179146885872,
        0.03902542218565941
      ],
      "min": [
        -0.03554179146885872,
        -0.03694477304816246,
        -0.03500000014901161
      ],
      "name": "Negozio/POSITION",
      "type": "VEC3"
    },
    {
      "bufferView": 0,
      "byteOffset": 12,
      "componentType": 5126,
      "count": 3309,
      "name": "Negozio/NORMAL",
      "type": "VEC3"
    },
    {
      "bufferView": 0,
      "byteOffset": 24,
      "componentType": 5126,
      "count": 3309,
      "name": "Negozio/TEXCOORD_0",
      "type": "VEC2"
    },
    {
      "bufferView": 1,
      "componentType": 5123,
      "count": 9282,
      "name": "Negozio/INDICES",
      "type": "SCALAR"
    },
    {
      "bufferView": 2,
      "componentType": 5126,
      "count": 24,
      "max": [
        0.0035707741044461727,
        0.004900501109659672,
        0.003034390276297927
      ],
      "min": [
        -0.0035707741044461727,
        -0.004900501109659672,
        -0.003034390276297927
      ],
      "name": "Ventola/POSITION",
      "type": "VEC3"
    },
    {
      "bufferView": 2,
      "byteOffset": 12,
      "componentType": 5126,
      "count": 24,
      "name": "Ventola/NORMAL",
      "type": "VEC3"
    },
    {
      "bufferView": 2,
      "byteOffset": 24,
      "componentType": 5126,
      "count": 24,
      "name": "Ventola/TEXCOORD_0",
      "type": "VEC2"
    },
    {
      "bufferView": 3,
      "componentType": 5123,
      "count": 36,
      "name": "Ventola/INDICES",
      "type": "SCALAR"
    },
    {
      "bufferView": 4,
      "componentType": 5126,
      "count": 256,
      "max": [
        0.009999999776482582,
        0.009999999776482582,
        0.009999999776482582
      ],
      "min": [
        -0.009999999776482582,
        -0.009999999776482582,
        -0.009999999776482582
      ],
      "name": "Ventilatore/POSITION",
      "type": "VEC3"
    },
    {
      "bufferView": 4,
      "byteOffset": 12,
      "componentType": 5126,
      "count": 256,
      "name": "Ventilatore/NORMAL",
      "type": "VEC3"
    },
    {
      "bufferView": 4,
      "byteOffset": 24,
      "componentType": 5126,
      "count": 256,
      "name": "Ventilatore/TEXCOORD_0",
      "type": "VEC2"
    },
    {
      "bufferView": 5,
      "componentType": 5123,
      "count": 564,
      "name": "Ventilatore/INDICES",
      "type": "SCALAR"
    },
    {
      "bufferView": 6,
      "componentType": 5126,
      "count": 24,
      "max": [
        0.0035707741044461727,
        0.004900501109659672,
        0.003034390276297927
      ],
      "min": [
        -0.0035707741044461727,
        -0.004900501109659672,
        -0.003034390276297927
      ],
      "name": "Ventola2/POSITION",
      "type": "VEC3"
    },
    {
      "bufferView": 6,
      "byteOffset": 12,
      "componentType": 5126,
      "count": 24,
      "name": "Ventola2/NORMAL",
      "type": "VEC3"
    },
    {
      "bufferView": 6,
      "byteOffset": 24,
      "componentType": 5126,
      "count": 24,
      "name": "Ventola2/TEXCOORD_0",
      "type": "VEC2"
    },
    {
      "bufferView": 7,
      "componentType": 5123,
      "count": 36,
      "name": "Ventola2/INDICES",
      "type": "SCALAR"
    },
    {
      "bufferView": 8,
      "componentType": 5126,
      "count": 256,
      "max": [
        0.009999999776482582,
        0.009999999776482582,
        0.009999999776482582
      ],
      "min": [
        -0.009999999776482582,
        -0.009999999776482582,
        -0.009999999776482582
      ],
      "name": "Ventilatore2/POSITION",
      "type": "VEC3"
    },
    {
      "bufferView": 8,
      "byteOffset": 12,
      "componentType": 5126,
      "count": 256,
      "name": "Ventilatore2/NORMAL",
      "type": "VEC3"
    },
    {
      "bufferView": 8,
      "byteOffset": 24,
      "componentType": 5126,
      "count": 256,
      "name": "Ventilatore2/TEXCOORD_0",
      "type": "VEC2"
    },
    {
      "bufferView": 9,
      "componentType": 5123,
      "count": 564,
      "name": "Ventilatore2/INDICES",
      "type": "SCALAR"
    },
    {
      "bufferView": 10,
      "componentType": 5126,
      "count": 192,
      "max": [
        0.00030553131364285946,
        0.00025326761533506215,
        0.002786511555314064
      ],
      "min": [
        -0.00030553131364285946,
        -0.00025326761533506215,
        -0.002786511555314064
      ],
      "name": "Maniglia/POSITION",
      "type": "VEC3"
    },
    {
      "bufferView": 10,
      "byteOffset": 12,
      "componentType": 5126,
      "count": 192,
      "name": "Maniglia/NORMAL",
      "type": "VEC3"
    },
    {
      "bufferView": 10,
      "byteOffset": 24,
      "componentType": 5126,
      "count": 192,
      "name": "Maniglia/TEXCOORD_0",
      "type": "VEC2"
    },
    {
      "bufferView": 11,
      "componentType": 5123,
      "count": 372,
      "name": "Maniglia/INDICES",
      "type": "SCALAR"
    },
    {
      "bufferView": 12,
      "componentType": 5126,
      "count": 116,
      "max": [
        -0.000750959210563451,
        0.04129679128527641,
        0.0
      ],
      "min": [
        -0.009083781391382217,
        -0.002426944673061371,
        -0.006167115643620491
      ],
      "name": "Tendone/POSITION",
      "type": "VEC3"
    },
    {
      "bufferView": 12,
      "byteOffset": 12,
      "componentType": 5126,
      "count": 116,
      "name": "Tendone/NORMAL",
      "type": "VEC3"
    },
    {
      "bufferView": 12,
      "byteOffset": 24,
      "componentType": 5126,
      "count": 116,
      "name": "Tendone/TEXCOORD_0",
      "type": "VEC2"
    },
    {
      "bufferView": 13,
      "componentType": 5123,
      "count": 156,
      "name": "Tendone/INDICES",
      "type": "SCALAR"
    },
    {
      "bufferView": 14,
      "componentType": 5126,
      "count": 116,
      "max": [
        -0.0022106722462922335,
        0.0412764847278595,
        0.002645801054313779
      ],
      "min": [
        -0.009037968702614307,
        -0.0025002295151352882,
        -0.004749015439301729
      ],
      "name": "Tendone2/POSITION",
      "type": "VEC3"
    },
    {
      "bufferView": 14,
      "byteOffset": 12,
      "componentType": 5126,
      "count": 116,
      "name": "Tendone2/NORMAL",
      "type": "VEC3"
    },
    {
      "bufferView": 14,
      "byteOffset": 24,
      "componentType": 5126,
      "count": 116,
      "name": "Tendone2/TEXCOORD_0",
      "type": "VEC2"
    },
    {
      "bufferView": 15,
      "componentType": 5123,
      "count": 156,
      "name": "Tendone2/INDICES",
      "type": "SCALAR"
    }
  ],
  "asset": {
    "copyright": "Copyright (c) 2018-2020 Chukong Technologies Inc.",
    "generator": "FBX-glTF-conv",
    "version": "2.0"
  },
  "bufferViews": [
    {
      "buffer": 0,
      "byteLength": 105888,
      "byteStride": 32,
      "name": "Negozio",
      "target": 34962
    },
    {
      "buffer": 0,
      "byteLength": 18564,
      "byteOffset": 105888,
      "target": 34963
    },
    {
      "buffer": 0,
      "byteLength": 768,
      "byteOffset": 124452,
      "byteStride": 32,
      "name": "Ventola",
      "target": 34962
    },
    {
      "buffer": 0,
      "byteLength": 72,
      "byteOffset": 125220,
      "target": 34963
    },
    {
      "buffer": 0,
      "byteLength": 8192,
      "byteOffset": 125292,
      "byteStride": 32,
      "name": "Ventilatore",
      "target": 34962
    },
    {
      "buffer": 0,
      "byteLength": 1128,
      "byteOffset": 133484,
      "target": 34963
    },
    {
      "buffer": 0,
      "byteLength": 768,
      "byteOffset": 134612,
      "byteStride": 32,
      "name": "Ventola2",
      "target": 34962
    },
    {
      "buffer": 0,
      "byteLength": 72,
      "byteOffset": 135380,
      "target": 34963
    },
    {
      "buffer": 0,
      "byteLength": 8192,
      "byteOffset": 135452,
      "byteStride": 32,
      "name": "Ventilatore2",
      "target": 34962
    },
    {
      "buffer": 0,
      "byteLength": 1128,
      "byteOffset": 143644,
      "target": 34963
    },
    {
      "buffer": 0,
      "byteLength": 6144,
      "byteOffset": 144772,
      "byteStride": 32,
      "name": "Maniglia",
      "target": 34962
    },
    {
      "buffer": 0,
      "byteLength": 744,
      "byteOffset": 150916,
      "target": 34963
    },
    {
      "buffer": 0,
      "byteLength": 3712,
      "byteOffset": 151660,
      "byteStride": 32,
      "name": "Tendone",
      "target": 34962
    },
    {
      "buffer": 0,
      "byteLength": 312,
      "byteOffset": 155372,
      "target": 34963
    },
    {
      "buffer": 0,
      "byteLength": 3712,
      "byteOffset": 155684,
      "byteStride": 32,
      "name": "Tendone2",
      "target": 34962
    },
    {
      "buffer": 0,
      "byteLength": 312,
      "byteOffset": 159396,
      "target": 34963
    }
  ],
  "buffers": [
    {
      "byteLength": 159708,
      "uri": "out.bin"
    }
  ],
  "extras": {
    "FBX-glTF-conv": {
      "animationFrameRate": 24.0,
      "fbxFileHeaderInfo": {
        "creationTimeStamp": {
          "day": 25,
          "hour": 20,
          "millisecond": 90,
          "minute": 30,
          "month": 11,
          "second": 15,
          "year": 2023
        },
        "creator": "FBX SDK/FBX Plugins version 2018.1.1",
        "sceneInfo": {
          "author": "",
          "comment": "",
          "keywords": "",
          "original": {
            "applicationName": "Blender Foundation Blender (stable FBX IO) 2.80 (sub 75)",
            "applicationVendor": "",
            "applicationVersion": "",
            "fileName": ""
          },
          "revision": "",
          "subject": "",
          "title": "",
          "url": "D:\\Project\\cocos\\Tower\\assets\\model\\house.fbx"
        }
      }
    }
  },
  "images": [
    {
      "extras": {
        "FBX-glTF-conv": {
          "fileName": "D:\\Project\\cocos\\Tower\\temp\\asset-db\\assets\\fbx.FBX-glTF-conv\\f9a567d6-029d-4656-a9ad-6cbd03132561\\output\\.fbm\\A275123C\\house.fbm/Negozio3.png",
          "relativeFileName": "..\\..\\temp\\asset-db\\assets\\fbx.FBX-glTF-conv\\f9a567d6-029d-4656-a9ad-6cbd03132561\\output\\.fbm\\A275123C\\house.fbm\\Negozio3.png"
        }
      },
      "name": "Negozio3.png",
      "uri": "Negozio3.png"
    }
  ],
  "materials": [
    {
      "extras": {
        "FBX-glTF-conv": {
          "raw": {
            "properties": {
              "ambient": {
                "value": [
                  0.0,
                  0.0,
                  0.0
                ]
              },
              "ambientFactor": {
                "value": 1.0
              },
              "bump": {
                "value": [
                  0.0,
                  0.0,
                  0.0
                ]
              },
              "bumpFactor": {
                "value": 1.0
              },
              "diffuse": {
                "texture": {
                  "index": 0
                },
                "value": [
                  0.800000011920929,
                  0.800000011920929,
                  0.800000011920929
                ]
              },
              "diffuseFactor": {
                "value": 1.0
              },
              "displacementColor": {
                "value": [
                  0.0,
                  0.0,
                  0.0
                ]
              },
              "displacementFactor": {
                "value": 1.0
              },
              "emissive": {
                "value": [
                  0.0,
                  0.0,
                  0.0
                ]
              },
              "emissiveFactor": {
                "value": 1.0
              },
              "normalMap": {
                "value": [
                  0.0,
                  0.0,
                  0.0
                ]
              },
              "reflection": {
                "value": [
                  0.0,
                  0.0,
                  0.0
                ]
              },
              "reflectionFactor": {
                "value": 0.0
              },
              "shadingModel": "Phong",
              "shininess": {
                "value": 24.999999999999993
              },
              "specular": {
                "value": [
                  0.800000011920929,
                  0.800000011920929,
                  0.800000011920929
                ]
              },
              "specularFactor": {
                "value": 0.25
              },
              "transparencyFactor": {
                "value": 0.0
              },
              "transparentColor": {
                "value": [
                  0.0,
                  0.0,
                  0.0
                ]
              },
              "vectorDisplacementColor": {
                "value": [
                  0.0,
                  0.0,
                  0.0
                ]
              },
              "vectorDisplacementFactor": {
                "value": 1.0
              }
            },
            "type": "phong"
          }
        }
      },
      "name": "Material.001"
    }
  ],
  "meshes": [
    {
      "name": "Negozio",
      "primitives": [
        {
          "attributes": {
            "NORMAL": 1,
            "POSITION": 0,
            "TEXCOORD_0": 2
          },
          "indices": 3,
          "material": 0
        }
      ]
    },
    {
      "name": "Ventola",
      "primitives": [
        {
          "attributes": {
            "NORMAL": 5,
            "POSITION": 4,
            "TEXCOORD_0": 6
          },
          "indices": 7,
          "material": 0
        }
      ]
    },
    {
      "name": "Ventilatore",
      "primitives": [
        {
          "attributes": {
            "NORMAL": 9,
            "POSITION": 8,
            "TEXCOORD_0": 10
          },
          "indices": 11,
          "material": 0
        }
      ]
    },
    {
      "name": "Ventola2",
      "primitives": [
        {
          "attributes": {
            "NORMAL": 13,
            "POSITION": 12,
            "TEXCOORD_0": 14
          },
          "indices": 15,
          "material": 0
        }
      ]
    },
    {
      "name": "Ventilatore2",
      "primitives": [
        {
          "attributes": {
            "NORMAL": 17,
            "POSITION": 16,
            "TEXCOORD_0": 18
          },
          "indices": 19,
          "material": 0
        }
      ]
    },
    {
      "name": "Maniglia",
      "primitives": [
        {
          "attributes": {
            "NORMAL": 21,
            "POSITION": 20,
            "TEXCOORD_0": 22
          },
          "indices": 23,
          "material": 0
        }
      ]
    },
    {
      "name": "Tendone",
      "primitives": [
        {
          "attributes": {
            "NORMAL": 25,
            "POSITION": 24,
            "TEXCOORD_0": 26
          },
          "indices": 27,
          "material": 0
        }
      ]
    },
    {
      "name": "Tendone2",
      "primitives": [
        {
          "attributes": {
            "NORMAL": 29,
            "POSITION": 28,
            "TEXCOORD_0": 30
          },
          "indices": 31,
          "material": 0
        }
      ]
    }
  ],
  "nodes": [
    {
      "name": "Cinema_4D_编辑器",
      "rotation": [
        -0.15606123208999634,
        0.9106032252311707,
        -0.06464267522096634,
        0.3771842122077942
      ],
      "translation": [
        18.74395751953125,
        8.002880096435547,
        16.87511444091797
      ]
    },
    {
      "mesh": 0,
      "name": "Negozio",
      "rotation": [
        -0.7071067690849304,
        -0.0,
        0.0,
        0.7071067690849304
      ],
      "scale": [
        100.0,
        100.0,
        100.0
      ]
    },
    {
      "mesh": 1,
      "name": "Ventola",
      "rotation": [
        -0.7071067690849304,
        -0.0,
        0.0,
        0.7071067690849304
      ],
      "scale": [
        100.0,
        100.0,
        100.0
      ],
      "translation": [
        -2.492234468460083,
        3.375359535217285,
        2.4179811477661133
      ]
    },
    {
      "mesh": 2,
      "name": "Ventilatore",
      "rotation": [
        -0.7071067690849304,
        -0.0,
        0.0,
        0.7071067690849304
      ],
      "scale": [
        22.305355072021484,
        22.305355072021484,
        6.780976295471191
      ],
      "translation": [
        -2.4901986122131348,
        3.617562770843506,
        2.5589065551757813
      ]
    },
    {
      "mesh": 3,
      "name": "Ventola2",
      "rotation": [
        -0.7071067690849304,
        -0.0,
        0.0,
        0.7071067690849304
      ],
      "scale": [
        100.0,
        100.0,
        100.0
      ],
      "translation": [
        -1.616939902305603,
        3.375359535217285,
        2.4179811477661133
      ]
    },
    {
      "mesh": 4,
      "name": "Ventilatore2",
      "rotation": [
        -0.7071067690849304,
        -0.0,
        0.0,
        0.7071067690849304
      ],
      "scale": [
        22.305355072021484,
        22.305355072021484,
        6.780976295471191
      ],
      "translation": [
        -1.6149039268493652,
        3.617562770843506,
        2.5589065551757813
      ]
    },
    {
      "mesh": 5,
      "name": "Maniglia",
      "rotation": [
        -0.7071067690849304,
        -0.0,
        0.0,
        0.7071067690849304
      ],
      "scale": [
        100.0,
        100.0,
        134.2228546142578
      ],
      "translation": [
        1.9768080711364746,
        -1.9582676887512207,
        2.7434017658233643
      ]
    },
    {
      "mesh": 6,
      "name": "Tendone",
      "rotation": [
        -0.42332643270492554,
        -0.418529212474823,
        -0.566387414932251,
        0.569941520690918
      ],
      "scale": [
        100.0,
        100.0,
        100.0
      ],
      "translation": [
        -3.054611921310425,
        -0.43127402663230896,
        4.436527729034424
      ]
    },
    {
      "mesh": 7,
      "name": "Tendone2",
      "rotation": [
        -0.7071067690849304,
        -0.0,
        0.0,
        0.7071067690849304
      ],
      "scale": [
        100.0,
        100.0,
        100.0
      ],
      "translation": [
        4.545830726623535,
        -0.43127402663230896,
        0.8558372259140015
      ]
    }
  ],
  "samplers": [
    {}
  ],
  "scenes": [
    {
      "nodes": [
        0,
        1,
        2,
        3,
        4,
        5,
        6,
        7,
        8
      ]
    }
  ],
  "textures": [
    {
      "name": "Negozio3.png",
      "sampler": 0,
      "source": 0
    }
  ]
}