{
  "accessors": [
    {
      "bufferView": 0,
      "componentType": 5126,
      "count": 843,
      "max": [
        3.1420600414276123,
        13.532585144042969,
        3.202421188354492
      ],
      "min": [
        -3.142059326171875,
        -0.10450749099254608,
        -3.0588226318359375
      ],
      "name": "Scene/POSITION",
      "type": "VEC3"
    },
    {
      "bufferView": 0,
      "byteOffset": 12,
      "componentType": 5126,
      "count": 843,
      "name": "Scene/NORMAL",
      "type": "VEC3"
    },
    {
      "bufferView": 0,
      "byteOffset": 24,
      "componentType": 5126,
      "count": 843,
      "name": "Scene/TEXCOORD_0",
      "type": "VEC2"
    },
    {
      "bufferView": 1,
      "componentType": 5123,
      "count": 1350,
      "name": "Scene/INDICES",
      "type": "SCALAR"
    }
  ],
  "asset": {
    "copyright": "Copyright (c) 2018-2020 Chukong Technologies Inc.",
    "generator": "FBX-glTF-conv",
    "version": "2.0"
  },
  "bufferViews": [
    {
      "buffer": 0,
      "byteLength": 26976,
      "byteStride": 32,
      "name": "Scene",
      "target": 34962
    },
    {
      "buffer": 0,
      "byteLength": 2700,
      "byteOffset": 26976,
      "target": 34963
    }
  ],
  "buffers": [
    {
      "byteLength": 29676,
      "uri": "out.bin"
    }
  ],
  "extras": {
    "FBX-glTF-conv": {
      "animationFrameRate": 30.0,
      "fbxFileHeaderInfo": {
        "creationTimeStamp": {
          "day": 11,
          "hour": 8,
          "millisecond": 203,
          "minute": 32,
          "month": 5,
          "second": 45,
          "year": 2024
        },
        "creator": "FBX SDK/FBX Plugins version 2020.3.4",
        "sceneInfo": {
          "author": "Unity Technologies",
          "comment": "",
          "keywords": "Nodes Meshes Materials Textures Cameras Lights Skins Animation",
          "original": {
            "applicationName": "Unity FBX Exporter",
            "applicationVendor": "",
            "applicationVersion": "5.1.1",
            "fileName": ""
          },
          "revision": "1.0",
          "subject": "",
          "title": "Created by FBX Exporter from Unity Technologies",
          "url": "D:\\Project\\cocos\\Tower\\assets\\model\\home_business_centers.006.fbx"
        }
      }
    }
  },
  "images": [
    {
      "extras": {
        "FBX-glTF-conv": {
          "fileName": "D:\\Project\\UnityShader\\Unity_Shaders_Book\\Assets\\city_3d_low_poly_3\\Textures\\City_low_poly_1024.png",
          "relativeFileName": "..\\..\\..\\UnityShader\\Unity_Shaders_Book\\Assets\\city_3d_low_poly_3\\Textures\\City_low_poly_1024.png"
        }
      },
      "name": "DiffuseColor_Texture",
      "uri": "data:image/png;base64,"
    }
  ],
  "materials": [
    {
      "extras": {
        "FBX-glTF-conv": {
          "raw": {
            "properties": {
              "ambient": {
                "value": [
                  0.0,
                  0.0,
                  0.0
                ]
              },
              "ambientFactor": {
                "value": 1.0
              },
              "bump": {
                "value": [
                  0.0,
                  0.0,
                  0.0
                ]
              },
              "bumpFactor": {
                "value": 1.0
              },
              "diffuse": {
                "texture": {
                  "index": 0
                },
                "value": [
                  1.0,
                  1.0,
                  1.0
                ]
              },
              "diffuseFactor": {
                "value": 1.0
              },
              "displacementColor": {
                "value": [
                  0.0,
                  0.0,
                  0.0
                ]
              },
              "displacementFactor": {
                "value": 1.0
              },
              "emissive": {
                "value": [
                  0.0,
                  0.0,
                  0.0
                ]
              },
              "emissiveFactor": {
                "value": 1.0
              },
              "normalMap": {
                "value": [
                  0.0,
                  0.0,
                  0.0
                ]
              },
              "shadingModel": "Lambert",
              "transparencyFactor": {
                "value": 0.0
              },
              "transparentColor": {
                "value": [
                  0.0,
                  0.0,
                  0.0
                ]
              },
              "vectorDisplacementColor": {
                "value": [
                  0.0,
                  0.0,
                  0.0
                ]
              },
              "vectorDisplacementFactor": {
                "value": 1.0
              }
            },
            "type": "lambert"
          }
        }
      },
      "name": "City_low_poly"
    }
  ],
  "meshes": [
    {
      "name": "Scene",
      "primitives": [
        {
          "attributes": {
            "NORMAL": 1,
            "POSITION": 0,
            "TEXCOORD_0": 2
          },
          "indices": 3,
          "material": 0
        }
      ]
    }
  ],
  "nodes": [
    {
      "mesh": 0,
      "name": "home_business_centers_006"
    }
  ],
  "samplers": [
    {}
  ],
  "scenes": [
    {
      "name": "Scene",
      "nodes": [
        0
      ]
    }
  ],
  "textures": [
    {
      "name": "DiffuseColor_Texture",
      "sampler": 0,
      "source": 0
    }
  ]
}