{
  "accessors": [
    {
      "bufferView": 0,
      "componentType": 5126,
      "count": 455,
      "max": [
        1.5,
        2.5999999046325684,
        3.5
      ],
      "min": [
        -1.5,
        0.0,
        -4.900000095367432
      ],
      "name": "Cube.123/POSITION",
      "type": "VEC3"
    },
    {
      "bufferView": 0,
      "byteOffset": 12,
      "componentType": 5126,
      "count": 455,
      "name": "Cube.123/NORMAL",
      "type": "VEC3"
    },
    {
      "bufferView": 0,
      "byteOffset": 24,
      "componentType": 5126,
      "count": 455,
      "name": "Cube.123/TEXCOORD_0",
      "type": "VEC2"
    },
    {
      "bufferView": 1,
      "componentType": 5123,
      "count": 843,
      "name": "Cube.123/INDICES",
      "type": "SCALAR"
    },
    {
      "bufferView": 2,
      "componentType": 5126,
      "count": 455,
      "max": [
        1.5,
        2.5999999046325684,
        3.5
      ],
      "min": [
        -1.5,
        0.0,
        -4.900000095367432
      ],
      "name": "Cube.125/POSITION",
      "type": "VEC3"
    },
    {
      "bufferView": 2,
      "byteOffset": 12,
      "componentType": 5126,
      "count": 455,
      "name": "Cube.125/NORMAL",
      "type": "VEC3"
    },
    {
      "bufferView": 2,
      "byteOffset": 24,
      "componentType": 5126,
      "count": 455,
      "name": "Cube.125/TEXCOORD_0",
      "type": "VEC2"
    },
    {
      "bufferView": 3,
      "componentType": 5123,
      "count": 843,
      "name": "Cube.125/INDICES",
      "type": "SCALAR"
    }
  ],
  "asset": {
    "copyright": "Copyright (c) 2018-2020 Chukong Technologies Inc.",
    "generator": "FBX-glTF-conv",
    "version": "2.0"
  },
  "bufferViews": [
    {
      "buffer": 0,
      "byteLength": 14560,
      "byteStride": 32,
      "name": "Cube.123",
      "target": 34962
    },
    {
      "buffer": 0,
      "byteLength": 1686,
      "byteOffset": 14560,
      "target": 34963
    },
    {
      "buffer": 0,
      "byteLength": 14560,
      "byteOffset": 16246,
      "byteStride": 32,
      "name": "Cube.125",
      "target": 34962
    },
    {
      "buffer": 0,
      "byteLength": 1686,
      "byteOffset": 30806,
      "target": 34963
    }
  ],
  "buffers": [
    {
      "byteLength": 32492,
      "uri": "out.bin"
    }
  ],
  "extras": {
    "FBX-glTF-conv": {
      "animationFrameRate": 24.0,
      "fbxFileHeaderInfo": {
        "creationTimeStamp": {
          "day": 8,
          "hour": 22,
          "millisecond": 45,
          "minute": 20,
          "month": 2,
          "second": 14,
          "year": 2021
        },
        "creator": "Blender (stable FBX IO) - 2.90.1 - 4.21.3",
        "sceneInfo": {
          "author": "",
          "comment": "",
          "keywords": "",
          "original": {
            "applicationName": "Blender (stable FBX IO)",
            "applicationVendor": "Blender Foundation",
            "applicationVersion": "2.90.1",
            "fileName": "/foobar.fbx"
          },
          "revision": "",
          "subject": "",
          "title": "",
          "url": "D:\\Project\\cocos\\test\\assets\\model\\Containers-Cargo.fbx"
        }
      }
    }
  },
  "images": [
    {
      "extras": {
        "FBX-glTF-conv": {
          "fileName": "D:\\Project\\cocos\\test\\temp\\asset-db\\assets\\fbx.FBX-glTF-conv\\afcf3672-bc20-408e-91e2-29787a8c28db\\output\\.fbm\\6DCF1616\\Containers-Cargo.fbm/ImphenziaPalette01-256-Gradient.png",
          "relativeFileName": "..\\..\\temp\\asset-db\\assets\\fbx.FBX-glTF-conv\\afcf3672-bc20-408e-91e2-29787a8c28db\\output\\.fbm\\6DCF1616\\Containers-Cargo.fbm\\ImphenziaPalette01-256-Gradient.png"
        }
      },
      "name": "base_color_texture",
      "uri": "ImphenziaPalette01-256-Gradient.png"
    }
  ],
  "materials": [
    {
      "extras": {
        "FBX-glTF-conv": {
          "raw": {
            "properties": {
              "ambient": {
                "value": [
                  0.05087608844041824,
                  0.05087608844041824,
                  0.05087608844041824
                ]
              },
              "ambientFactor": {
                "value": 1.0
              },
              "bump": {
                "value": [
                  0.0,
                  0.0,
                  0.0
                ]
              },
              "bumpFactor": {
                "value": 0.0
              },
              "diffuse": {
                "texture": {
                  "index": 0
                },
                "value": [
                  0.8000000715255737,
                  0.0,
                  0.5381399989128113
                ]
              },
              "diffuseFactor": {
                "value": 1.0
              },
              "displacementColor": {
                "value": [
                  0.0,
                  0.0,
                  0.0
                ]
              },
              "displacementFactor": {
                "value": 1.0
              },
              "emissive": {
                "value": [
                  0.0,
                  0.0,
                  0.0
                ]
              },
              "emissiveFactor": {
                "value": 1.0
              },
              "normalMap": {
                "value": [
                  0.0,
                  0.0,
                  0.0
                ]
              },
              "reflection": {
                "value": [
                  0.8000000715255737,
                  0.0,
                  0.5381399989128113
                ]
              },
              "reflectionFactor": {
                "value": 0.0
              },
              "shadingModel": "Phong",
              "shininess": {
                "value": 0.07438002342041727
              },
              "specular": {
                "value": [
                  0.8000000715255737,
                  0.0,
                  0.5381399989128113
                ]
              },
              "specularFactor": {
                "value": 0.25
              },
              "transparencyFactor": {
                "value": 0.0
              },
              "transparentColor": {
                "value": [
                  0.0,
                  0.0,
                  0.0
                ]
              },
              "vectorDisplacementColor": {
                "value": [
                  0.0,
                  0.0,
                  0.0
                ]
              },
              "vectorDisplacementFactor": {
                "value": 1.0
              }
            },
            "type": "phong"
          }
        }
      },
      "name": "Submission_Diffuse_Shader"
    }
  ],
  "meshes": [
    {
      "name": "Cube.123",
      "primitives": [
        {
          "attributes": {
            "NORMAL": 1,
            "POSITION": 0,
            "TEXCOORD_0": 2
          },
          "indices": 3,
          "material": 0
        }
      ]
    },
    {
      "name": "Cube.125",
      "primitives": [
        {
          "attributes": {
            "NORMAL": 5,
            "POSITION": 4,
            "TEXCOORD_0": 6
          },
          "indices": 7,
          "material": 0
        }
      ]
    }
  ],
  "nodes": [
    {
      "mesh": 0,
      "name": "Cargo Container White Boxes"
    },
    {
      "mesh": 1,
      "name": "Cargo Container Blue Boxes"
    }
  ],
  "samplers": [
    {}
  ],
  "scenes": [
    {
      "name": "Scene",
      "nodes": [
        0,
        1
      ]
    }
  ],
  "textures": [
    {
      "name": "base_color_texture",
      "sampler": 0,
      "source": 0
    }
  ]
}