{
  "accessors": [
    {
      "bufferView": 0,
      "componentType": 5126,
      "count": 15388,
      "max": [
        1.5745446681976318,
        12.848886489868164,
        29.860822677612305
      ],
      "min": [
        -2.830899477005005,
        -1.1412841081619263,
        -15.314881324768066
      ],
      "name": "SM_Bld_Crane_Top_01_Material0/POSITION",
      "type": "VEC3"
    },
    {
      "bufferView": 0,
      "byteOffset": 12,
      "componentType": 5126,
      "count": 15388,
      "name": "SM_Bld_Crane_Top_01_Material0/NORMAL",
      "type": "VEC3"
    },
    {
      "bufferView": 0,
      "byteOffset": 24,
      "componentType": 5126,
      "count": 15388,
      "name": "SM_Bld_Crane_Top_01_Material0/TEXCOORD_0",
      "type": "VEC2"
    },
    {
      "bufferView": 1,
      "componentType": 5123,
      "count": 25434,
      "name": "SM_Bld_Crane_Top_01_Material0/INDICES",
      "type": "SCALAR"
    },
    {
      "bufferView": 2,
      "componentType": 5126,
      "count": 24,
      "max": [
        1.2004187107086182,
        5.992685317993164,
        1.2613301277160645
      ],
      "min": [
        -2.7329161167144775,
        0.5047338604927063,
        -3.5241081714630127
      ],
      "name": "SM_Bld_Crane_Top_01_Material0/POSITION",
      "type": "VEC3"
    },
    {
      "bufferView": 2,
      "byteOffset": 12,
      "componentType": 5126,
      "count": 24,
      "name": "SM_Bld_Crane_Top_01_Material0/NORMAL",
      "type": "VEC3"
    },
    {
      "bufferView": 2,
      "byteOffset": 24,
      "componentType": 5126,
      "count": 24,
      "name": "SM_Bld_Crane_Top_01_Material0/TEXCOORD_0",
      "type": "VEC2"
    },
    {
      "bufferView": 3,
      "componentType": 5123,
      "count": 48,
      "name": "SM_Bld_Crane_Top_01_Material0/INDICES",
      "type": "SCALAR"
    },
    {
      "bufferView": 4,
      "componentType": 5126,
      "count": 31,
      "max": [
        -0.34456172585487366,
        3.3882250785827637,
        1.5100312232971191
      ],
      "min": [
        -1.653106689453125,
        1.5625536441802979,
        -0.5524272322654724
      ],
      "name": "SM_Bld_Crane_Top_01_Material0/POSITION",
      "type": "VEC3"
    },
    {
      "bufferView": 4,
      "byteOffset": 12,
      "componentType": 5126,
      "count": 31,
      "name": "SM_Bld_Crane_Top_01_Material0/NORMAL",
      "type": "VEC3"
    },
    {
      "bufferView": 4,
      "byteOffset": 24,
      "componentType": 5126,
      "count": 31,
      "name": "SM_Bld_Crane_Top_01_Material0/TEXCOORD_0",
      "type": "VEC2"
    },
    {
      "bufferView": 5,
      "componentType": 5123,
      "count": 51,
      "name": "SM_Bld_Crane_Top_01_Material0/INDICES",
      "type": "SCALAR"
    },
    {
      "bufferView": 6,
      "componentType": 5126,
      "count": 296,
      "max": [
        0.9405391216278076,
        0.6079480051994324,
        1.5637656450271606
      ],
      "min": [
        -0.9405398964881897,
        -0.6079503893852234,
        -1.5637683868408203
      ],
      "name": "Scene/POSITION",
      "type": "VEC3"
    },
    {
      "bufferView": 6,
      "byteOffset": 12,
      "componentType": 5126,
      "count": 296,
      "name": "Scene/NORMAL",
      "type": "VEC3"
    },
    {
      "bufferView": 6,
      "byteOffset": 24,
      "componentType": 5126,
      "count": 296,
      "name": "Scene/TEXCOORD_0",
      "type": "VEC2"
    },
    {
      "bufferView": 7,
      "componentType": 5123,
      "count": 552,
      "name": "Scene/INDICES",
      "type": "SCALAR"
    },
    {
      "bufferView": 8,
      "componentType": 5126,
      "count": 288,
      "max": [
        0.13715939223766327,
        0.8396451473236084,
        0.27423158288002014
      ],
      "min": [
        -0.13716189563274384,
        -0.8396443724632263,
        -0.27423033118247986
      ],
      "name": "Scene/POSITION",
      "type": "VEC3"
    },
    {
      "bufferView": 8,
      "byteOffset": 12,
      "componentType": 5126,
      "count": 288,
      "name": "Scene/NORMAL",
      "type": "VEC3"
    },
    {
      "bufferView": 8,
      "byteOffset": 24,
      "componentType": 5126,
      "count": 288,
      "name": "Scene/TEXCOORD_0",
      "type": "VEC2"
    },
    {
      "bufferView": 9,
      "componentType": 5123,
      "count": 498,
      "name": "Scene/INDICES",
      "type": "SCALAR"
    },
    {
      "bufferView": 10,
      "componentType": 5126,
      "count": 4822,
      "max": [
        1.4474550485610962,
        0.07765340805053711,
        3.0004589557647705
      ],
      "min": [
        -1.4459823369979858,
        -5.797483444213867,
        -2.9568798542022705
      ],
      "name": "Scene/POSITION",
      "type": "VEC3"
    },
    {
      "bufferView": 10,
      "byteOffset": 12,
      "componentType": 5126,
      "count": 4822,
      "name": "Scene/NORMAL",
      "type": "VEC3"
    },
    {
      "bufferView": 10,
      "byteOffset": 24,
      "componentType": 5126,
      "count": 4822,
      "name": "Scene/TEXCOORD_0",
      "type": "VEC2"
    },
    {
      "bufferView": 11,
      "componentType": 5123,
      "count": 8448,
      "name": "Scene/INDICES",
      "type": "SCALAR"
    },
    {
      "bufferView": 12,
      "componentType": 5126,
      "count": 2351,
      "max": [
        1.2258374691009521,
        2.590000629425049,
        3.095473527908325
      ],
      "min": [
        -1.2258323431015015,
        5.460960892378353e-07,
        -3.0954785346984863
      ],
      "name": "Scene/POSITION",
      "type": "VEC3"
    },
    {
      "bufferView": 12,
      "byteOffset": 12,
      "componentType": 5126,
      "count": 2351,
      "name": "Scene/NORMAL",
      "type": "VEC3"
    },
    {
      "bufferView": 12,
      "byteOffset": 24,
      "componentType": 5126,
      "count": 2351,
      "name": "Scene/TEXCOORD_0",
      "type": "VEC2"
    },
    {
      "bufferView": 13,
      "componentType": 5123,
      "count": 4116,
      "name": "Scene/INDICES",
      "type": "SCALAR"
    },
    {
      "bufferView": 14,
      "componentType": 5126,
      "count": 40,
      "max": [
        0.05548270046710968,
        6.852557182312012,
        0.18812884390354156
      ],
      "min": [
        -0.055484093725681305,
        -1.248011926691106e-06,
        -0.18812847137451172
      ],
      "name": "Scene/POSITION",
      "type": "VEC3"
    },
    {
      "bufferView": 14,
      "byteOffset": 12,
      "componentType": 5126,
      "count": 40,
      "name": "Scene/NORMAL",
      "type": "VEC3"
    },
    {
      "bufferView": 14,
      "byteOffset": 24,
      "componentType": 5126,
      "count": 40,
      "name": "Scene/TEXCOORD_0",
      "type": "VEC2"
    },
    {
      "bufferView": 15,
      "componentType": 5123,
      "count": 60,
      "name": "Scene/INDICES",
      "type": "SCALAR"
    }
  ],
  "asset": {
    "copyright": "Copyright (c) 2018-2020 Chukong Technologies Inc.",
    "generator": "FBX-glTF-conv",
    "version": "2.0"
  },
  "bufferViews": [
    {
      "buffer": 0,
      "byteLength": 492416,
      "byteStride": 32,
      "name": "SM_Bld_Crane_Top_01_Material0",
      "target": 34962
    },
    {
      "buffer": 0,
      "byteLength": 50868,
      "byteOffset": 492416,
      "target": 34963
    },
    {
      "buffer": 0,
      "byteLength": 768,
      "byteOffset": 543284,
      "byteStride": 32,
      "name": "SM_Bld_Crane_Top_01_Material0",
      "target": 34962
    },
    {
      "buffer": 0,
      "byteLength": 96,
      "byteOffset": 544052,
      "target": 34963
    },
    {
      "buffer": 0,
      "byteLength": 992,
      "byteOffset": 544148,
      "byteStride": 32,
      "name": "SM_Bld_Crane_Top_01_Material0",
      "target": 34962
    },
    {
      "buffer": 0,
      "byteLength": 102,
      "byteOffset": 545140,
      "target": 34963
    },
    {
      "buffer": 0,
      "byteLength": 9472,
      "byteOffset": 545242,
      "byteStride": 32,
      "name": "Scene",
      "target": 34962
    },
    {
      "buffer": 0,
      "byteLength": 1104,
      "byteOffset": 554714,
      "target": 34963
    },
    {
      "buffer": 0,
      "byteLength": 9216,
      "byteOffset": 555818,
      "byteStride": 32,
      "name": "Scene",
      "target": 34962
    },
    {
      "buffer": 0,
      "byteLength": 996,
      "byteOffset": 565034,
      "target": 34963
    },
    {
      "buffer": 0,
      "byteLength": 154304,
      "byteOffset": 566030,
      "byteStride": 32,
      "name": "Scene",
      "target": 34962
    },
    {
      "buffer": 0,
      "byteLength": 16896,
      "byteOffset": 720334,
      "target": 34963
    },
    {
      "buffer": 0,
      "byteLength": 75232,
      "byteOffset": 737230,
      "byteStride": 32,
      "name": "Scene",
      "target": 34962
    },
    {
      "buffer": 0,
      "byteLength": 8232,
      "byteOffset": 812462,
      "target": 34963
    },
    {
      "buffer": 0,
      "byteLength": 1280,
      "byteOffset": 820694,
      "byteStride": 32,
      "name": "Scene",
      "target": 34962
    },
    {
      "buffer": 0,
      "byteLength": 120,
      "byteOffset": 821974,
      "target": 34963
    }
  ],
  "buffers": [
    {
      "byteLength": 822094,
      "uri": "out.bin"
    }
  ],
  "extras": {
    "FBX-glTF-conv": {
      "animationFrameRate": 30.0,
      "fbxFileHeaderInfo": {
        "creationTimeStamp": {
          "day": 15,
          "hour": 21,
          "millisecond": 857,
          "minute": 50,
          "month": 5,
          "second": 2,
          "year": 2024
        },
        "creator": "FBX SDK/FBX Plugins version 2020.3.4",
        "sceneInfo": {
          "author": "Unity Technologies",
          "comment": "",
          "keywords": "Nodes Meshes Materials Textures Cameras Lights Skins Animation",
          "original": {
            "applicationName": "Unity FBX Exporter",
            "applicationVendor": "",
            "applicationVersion": "5.1.1",
            "fileName": ""
          },
          "revision": "1.0",
          "subject": "",
          "title": "Created by FBX Exporter from Unity Technologies",
          "url": "D:\\Project\\cocos\\Tower\\assets\\model\\craneHolder.fbx"
        }
      }
    }
  },
  "images": [
    {
      "extras": {
        "FBX-glTF-conv": {
          "fileName": "D:\\Project\\cocos\\Tower\\temp\\asset-db\\assets\\fbx.FBX-glTF-conv\\472af0e0-0cf9-4b56-8366-040ae06a56e6\\output\\.fbm\\18A2149F\\craneHolder.fbm/PolygonConstruction_Texture_01_A.png",
          "relativeFileName": "..\\..\\temp\\asset-db\\assets\\fbx.FBX-glTF-conv\\472af0e0-0cf9-4b56-8366-040ae06a56e6\\output\\.fbm\\18A2149F\\craneHolder.fbm\\PolygonConstruction_Texture_01_A.png"
        }
      },
      "name": "DiffuseColor_Texture",
      "uri": "PolygonConstruction_Texture_01_A.png"
    },
    {
      "extras": {
        "FBX-glTF-conv": {
          "fileName": "D:\\Project\\cocos\\Tower\\temp\\asset-db\\assets\\fbx.FBX-glTF-conv\\472af0e0-0cf9-4b56-8366-040ae06a56e6\\output\\.fbm\\18A2149F\\craneHolder.fbm/Fence_Alpha.tga",
          "relativeFileName": "..\\..\\temp\\asset-db\\assets\\fbx.FBX-glTF-conv\\472af0e0-0cf9-4b56-8366-040ae06a56e6\\output\\.fbm\\18A2149F\\craneHolder.fbm\\Fence_Alpha.tga"
        }
      },
      "name": "DiffuseColor_Texture_1",
      "uri": "data:image/png;base64,"
    }
  ],
  "materials": [
    {
      "extras": {
        "FBX-glTF-conv": {
          "raw": {
            "properties": {
              "ambient": {
                "value": [
                  0.0,
                  0.0,
                  0.0
                ]
              },
              "ambientFactor": {
                "value": 1.0
              },
              "bump": {
                "value": [
                  0.0,
                  0.0,
                  0.0
                ]
              },
              "bumpFactor": {
                "value": 1.0
              },
              "diffuse": {
                "texture": {
                  "index": 0
                },
                "value": [
                  1.0,
                  1.0,
                  1.0
                ]
              },
              "diffuseFactor": {
                "value": 1.0
              },
              "displacementColor": {
                "value": [
                  0.0,
                  0.0,
                  0.0
                ]
              },
              "displacementFactor": {
                "value": 1.0
              },
              "emissive": {
                "value": [
                  0.0,
                  0.0,
                  0.0
                ]
              },
              "emissiveFactor": {
                "value": 1.0
              },
              "normalMap": {
                "value": [
                  0.0,
                  0.0,
                  0.0
                ]
              },
              "shadingModel": "Lambert",
              "transparencyFactor": {
                "value": 0.0
              },
              "transparentColor": {
                "value": [
                  0.0,
                  0.0,
                  0.0
                ]
              },
              "vectorDisplacementColor": {
                "value": [
                  0.0,
                  0.0,
                  0.0
                ]
              },
              "vectorDisplacementFactor": {
                "value": 1.0
              }
            },
            "type": "lambert"
          }
        }
      },
      "name": "PolygonConstruction_Mat_01_A"
    },
    {
      "extras": {
        "FBX-glTF-conv": {
          "raw": {
            "properties": {
              "ambient": {
                "value": [
                  0.0,
                  0.0,
                  0.0
                ]
              },
              "ambientFactor": {
                "value": 1.0
              },
              "bump": {
                "value": [
                  0.0,
                  0.0,
                  0.0
                ]
              },
              "bumpFactor": {
                "value": 1.0
              },
              "diffuse": {
                "texture": {
                  "index": 1
                },
                "value": [
                  1.0,
                  1.0,
                  1.0
                ]
              },
              "diffuseFactor": {
                "value": 1.0
              },
              "displacementColor": {
                "value": [
                  0.0,
                  0.0,
                  0.0
                ]
              },
              "displacementFactor": {
                "value": 1.0
              },
              "emissive": {
                "value": [
                  0.0,
                  0.0,
                  0.0
                ]
              },
              "emissiveFactor": {
                "value": 1.0
              },
              "normalMap": {
                "value": [
                  0.0,
                  0.0,
                  0.0
                ]
              },
              "shadingModel": "Lambert",
              "transparencyFactor": {
                "value": 0.0
              },
              "transparentColor": {
                "value": [
                  0.0,
                  0.0,
                  0.0
                ]
              },
              "vectorDisplacementColor": {
                "value": [
                  0.0,
                  0.0,
                  0.0
                ]
              },
              "vectorDisplacementFactor": {
                "value": 1.0
              }
            },
            "type": "lambert"
          }
        }
      },
      "name": "PolygonConstruction_Mat_Fence"
    },
    {
      "extras": {
        "FBX-glTF-conv": {
          "raw": {
            "properties": {
              "ambient": {
                "value": [
                  0.0,
                  0.0,
                  0.0
                ]
              },
              "ambientFactor": {
                "value": 1.0
              },
              "bump": {
                "value": [
                  0.0,
                  0.0,
                  0.0
                ]
              },
              "bumpFactor": {
                "value": 1.0
              },
              "diffuse": {
                "texture": {
                  "index": 0
                },
                "value": [
                  1.0,
                  1.0,
                  1.0
                ]
              },
              "diffuseFactor": {
                "value": 1.0
              },
              "displacementColor": {
                "value": [
                  0.0,
                  0.0,
                  0.0
                ]
              },
              "displacementFactor": {
                "value": 1.0
              },
              "emissive": {
                "value": [
                  0.0,
                  0.0,
                  0.0
                ]
              },
              "emissiveFactor": {
                "value": 1.0
              },
              "normalMap": {
                "value": [
                  0.0,
                  0.0,
                  0.0
                ]
              },
              "shadingModel": "Lambert",
              "transparencyFactor": {
                "value": 0.0
              },
              "transparentColor": {
                "value": [
                  0.0,
                  0.0,
                  0.0
                ]
              },
              "vectorDisplacementColor": {
                "value": [
                  0.0,
                  0.0,
                  0.0
                ]
              },
              "vectorDisplacementFactor": {
                "value": 1.0
              }
            },
            "type": "lambert"
          }
        }
      },
      "name": "PolygonConstruction_Glass_01"
    }
  ],
  "meshes": [
    {
      "name": "Scene",
      "primitives": [
        {
          "attributes": {
            "NORMAL": 1,
            "POSITION": 0,
            "TEXCOORD_0": 2
          },
          "indices": 3,
          "material": 0
        },
        {
          "attributes": {
            "NORMAL": 5,
            "POSITION": 4,
            "TEXCOORD_0": 6
          },
          "indices": 7,
          "material": 1
        },
        {
          "attributes": {
            "NORMAL": 9,
            "POSITION": 8,
            "TEXCOORD_0": 10
          },
          "indices": 11,
          "material": 2
        }
      ]
    },
    {
      "name": "Scene",
      "primitives": [
        {
          "attributes": {
            "NORMAL": 13,
            "POSITION": 12,
            "TEXCOORD_0": 14
          },
          "indices": 15,
          "material": 0
        }
      ]
    },
    {
      "name": "Scene",
      "primitives": [
        {
          "attributes": {
            "NORMAL": 17,
            "POSITION": 16,
            "TEXCOORD_0": 18
          },
          "indices": 19,
          "material": 0
        }
      ]
    },
    {
      "name": "Scene",
      "primitives": [
        {
          "attributes": {
            "NORMAL": 21,
            "POSITION": 20,
            "TEXCOORD_0": 22
          },
          "indices": 23,
          "material": 0
        }
      ]
    },
    {
      "name": "Scene",
      "primitives": [
        {
          "attributes": {
            "NORMAL": 25,
            "POSITION": 24,
            "TEXCOORD_0": 26
          },
          "indices": 27,
          "material": 0
        }
      ]
    },
    {
      "name": "Scene",
      "primitives": [
        {
          "attributes": {
            "NORMAL": 29,
            "POSITION": 28,
            "TEXCOORD_0": 30
          },
          "indices": 31,
          "material": 0
        }
      ]
    }
  ],
  "nodes": [
    {
      "children": [
        1
      ],
      "mesh": 0,
      "name": "SM_Bld_Crane_Top_01"
    },
    {
      "children": [
        2
      ],
      "mesh": 1,
      "name": "SM_Bld_Crane_Slide_01",
      "translation": [
        -0.007390914484858513,
        6.005894660949707,
        22.767587661743164
      ]
    },
    {
      "children": [
        3,
        5
      ],
      "mesh": 2,
      "name": "SM_Bld_Crane_Hook_01",
      "translation": [
        0.0428963378071785,
        -8.010100364685059,
        0.05113563314080238
      ]
    },
    {
      "children": [
        4
      ],
      "mesh": 3,
      "name": "SM_Bld_Crane_Hook_Beams_01",
      "translation": [
        -0.006701918318867683,
        -0.6909330487251282,
        -0.003917738329619169
      ]
    },
    {
      "mesh": 4,
      "name": "SM_Bld_Crane_Hook_Container_01",
      "translation": [
        -0.032957691699266434,
        -8.267723083496094,
        0.027653703466057777
      ]
    },
    {
      "mesh": 5,
      "name": "SM_Bld_Crane_Hook_Wire_01",
      "translation": [
        -0.02217584103345871,
        0.6811453700065613,
        0.024012884125113487
      ]
    }
  ],
  "samplers": [
    {}
  ],
  "scenes": [
    {
      "name": "Scene",
      "nodes": [
        0
      ]
    }
  ],
  "textures": [
    {
      "name": "DiffuseColor_Texture",
      "sampler": 0,
      "source": 0
    },
    {
      "name": "DiffuseColor_Texture_1",
      "sampler": 0,
      "source": 1
    }
  ]
}