{
  "accessors": [
    {
      "bufferView": 0,
      "componentType": 5126,
      "count": 3250,
      "max": [
        1.564911127090454,
        3.152890205383301,
        3.4842636585235596
      ],
      "min": [
        -1.564911127090454,
        -0.04469621181488037,
        -3.517749786376953
      ],
      "name": "Cube.119/POSITION",
      "type": "VEC3"
    },
    {
      "bufferView": 0,
      "byteOffset": 12,
      "componentType": 5126,
      "count": 3250,
      "name": "Cube.119/NORMAL",
      "type": "VEC3"
    },
    {
      "bufferView": 0,
      "byteOffset": 24,
      "componentType": 5126,
      "count": 3250,
      "name": "Cube.119/TEXCOORD_0",
      "type": "VEC2"
    },
    {
      "bufferView": 1,
      "componentType": 5123,
      "count": 5544,
      "name": "Cube.119/INDICES",
      "type": "SCALAR"
    },
    {
      "bufferView": 2,
      "componentType": 5126,
      "count": 3530,
      "max": [
        1.564911127090454,
        3.770068645477295,
        3.4842636585235596
      ],
      "min": [
        -1.564911127090454,
        -0.04469621181488037,
        -3.6967520713806152
      ],
      "name": "Cube.121/POSITION",
      "type": "VEC3"
    },
    {
      "bufferView": 2,
      "byteOffset": 12,
      "componentType": 5126,
      "count": 3530,
      "name": "Cube.121/NORMAL",
      "type": "VEC3"
    },
    {
      "bufferView": 2,
      "byteOffset": 24,
      "componentType": 5126,
      "count": 3530,
      "name": "Cube.121/TEXCOORD_0",
      "type": "VEC2"
    },
    {
      "bufferView": 3,
      "componentType": 5123,
      "count": 5898,
      "name": "Cube.121/INDICES",
      "type": "SCALAR"
    },
    {
      "bufferView": 4,
      "componentType": 5126,
      "count": 2705,
      "max": [
        1.4456582069396973,
        2.91257381439209,
        2.0794734954833984
      ],
      "min": [
        -1.4456582069396973,
        -0.04469621181488037,
        -3.517749786376953
      ],
      "name": "Cube.124/POSITION",
      "type": "VEC3"
    },
    {
      "bufferView": 4,
      "byteOffset": 12,
      "componentType": 5126,
      "count": 2705,
      "name": "Cube.124/NORMAL",
      "type": "VEC3"
    },
    {
      "bufferView": 4,
      "byteOffset": 24,
      "componentType": 5126,
      "count": 2705,
      "name": "Cube.124/TEXCOORD_0",
      "type": "VEC2"
    },
    {
      "bufferView": 5,
      "componentType": 5123,
      "count": 4440,
      "name": "Cube.124/INDICES",
      "type": "SCALAR"
    },
    {
      "bufferView": 6,
      "componentType": 5126,
      "count": 3250,
      "max": [
        1.564911127090454,
        3.152890205383301,
        3.4842636585235596
      ],
      "min": [
        -1.564911127090454,
        -0.04469621181488037,
        -3.517749786376953
      ],
      "name": "Cube.126/POSITION",
      "type": "VEC3"
    },
    {
      "bufferView": 6,
      "byteOffset": 12,
      "componentType": 5126,
      "count": 3250,
      "name": "Cube.126/NORMAL",
      "type": "VEC3"
    },
    {
      "bufferView": 6,
      "byteOffset": 24,
      "componentType": 5126,
      "count": 3250,
      "name": "Cube.126/TEXCOORD_0",
      "type": "VEC2"
    },
    {
      "bufferView": 7,
      "componentType": 5123,
      "count": 5544,
      "name": "Cube.126/INDICES",
      "type": "SCALAR"
    },
    {
      "bufferView": 8,
      "componentType": 5126,
      "count": 3530,
      "max": [
        1.564911127090454,
        3.770068645477295,
        3.4842636585235596
      ],
      "min": [
        -1.564911127090454,
        -0.04469621181488037,
        -3.6967520713806152
      ],
      "name": "Cube.127/POSITION",
      "type": "VEC3"
    },
    {
      "bufferView": 8,
      "byteOffset": 12,
      "componentType": 5126,
      "count": 3530,
      "name": "Cube.127/NORMAL",
      "type": "VEC3"
    },
    {
      "bufferView": 8,
      "byteOffset": 24,
      "componentType": 5126,
      "count": 3530,
      "name": "Cube.127/TEXCOORD_0",
      "type": "VEC2"
    },
    {
      "bufferView": 9,
      "componentType": 5123,
      "count": 5898,
      "name": "Cube.127/INDICES",
      "type": "SCALAR"
    },
    {
      "bufferView": 10,
      "componentType": 5126,
      "count": 3051,
      "max": [
        1.564911127090454,
        3.152890205383301,
        3.4842636585235596
      ],
      "min": [
        -1.564911127090454,
        -0.04469621181488037,
        -3.517749786376953
      ],
      "name": "Cube.128/POSITION",
      "type": "VEC3"
    },
    {
      "bufferView": 10,
      "byteOffset": 12,
      "componentType": 5126,
      "count": 3051,
      "name": "Cube.128/NORMAL",
      "type": "VEC3"
    },
    {
      "bufferView": 10,
      "byteOffset": 24,
      "componentType": 5126,
      "count": 3051,
      "name": "Cube.128/TEXCOORD_0",
      "type": "VEC2"
    },
    {
      "bufferView": 11,
      "componentType": 5123,
      "count": 5136,
      "name": "Cube.128/INDICES",
      "type": "SCALAR"
    }
  ],
  "asset": {
    "copyright": "Copyright (c) 2018-2020 Chukong Technologies Inc.",
    "generator": "FBX-glTF-conv",
    "version": "2.0"
  },
  "bufferViews": [
    {
      "buffer": 0,
      "byteLength": 104000,
      "byteStride": 32,
      "name": "Cube.119",
      "target": 34962
    },
    {
      "buffer": 0,
      "byteLength": 11088,
      "byteOffset": 104000,
      "target": 34963
    },
    {
      "buffer": 0,
      "byteLength": 112960,
      "byteOffset": 115088,
      "byteStride": 32,
      "name": "Cube.121",
      "target": 34962
    },
    {
      "buffer": 0,
      "byteLength": 11796,
      "byteOffset": 228048,
      "target": 34963
    },
    {
      "buffer": 0,
      "byteLength": 86560,
      "byteOffset": 239844,
      "byteStride": 32,
      "name": "Cube.124",
      "target": 34962
    },
    {
      "buffer": 0,
      "byteLength": 8880,
      "byteOffset": 326404,
      "target": 34963
    },
    {
      "buffer": 0,
      "byteLength": 104000,
      "byteOffset": 335284,
      "byteStride": 32,
      "name": "Cube.126",
      "target": 34962
    },
    {
      "buffer": 0,
      "byteLength": 11088,
      "byteOffset": 439284,
      "target": 34963
    },
    {
      "buffer": 0,
      "byteLength": 112960,
      "byteOffset": 450372,
      "byteStride": 32,
      "name": "Cube.127",
      "target": 34962
    },
    {
      "buffer": 0,
      "byteLength": 11796,
      "byteOffset": 563332,
      "target": 34963
    },
    {
      "buffer": 0,
      "byteLength": 97632,
      "byteOffset": 575128,
      "byteStride": 32,
      "name": "Cube.128",
      "target": 34962
    },
    {
      "buffer": 0,
      "byteLength": 10272,
      "byteOffset": 672760,
      "target": 34963
    }
  ],
  "buffers": [
    {
      "byteLength": 683032,
      "uri": "out.bin"
    }
  ],
  "extras": {
    "FBX-glTF-conv": {
      "animationFrameRate": 24.0,
      "fbxFileHeaderInfo": {
        "creationTimeStamp": {
          "day": 8,
          "hour": 22,
          "millisecond": 975,
          "minute": 21,
          "month": 2,
          "second": 19,
          "year": 2021
        },
        "creator": "Blender (stable FBX IO) - 2.90.1 - 4.21.3",
        "sceneInfo": {
          "author": "",
          "comment": "",
          "keywords": "",
          "original": {
            "applicationName": "Blender (stable FBX IO)",
            "applicationVendor": "Blender Foundation",
            "applicationVersion": "2.90.1",
            "fileName": "/foobar.fbx"
          },
          "revision": "",
          "subject": "",
          "title": "",
          "url": "D:\\Project\\cocos\\Tower\\assets\\model\\LowPoly-House-Construction-Site-By-Majadroid\\fbx files\\Trucks.fbx"
        }
      }
    }
  },
  "images": [
    {
      "extras": {
        "FBX-glTF-conv": {
          "fileName": "D:\\Project\\cocos\\Tower\\temp\\asset-db\\assets\\fbx.FBX-glTF-conv\\fccd29f7-1b4f-4a6e-ab82-392d1df94915\\output\\.fbm\\1E0F2860\\Trucks.fbm/ImphenziaPalette01-256-Gradient.png",
          "relativeFileName": "..\\..\\..\\..\\temp\\asset-db\\assets\\fbx.FBX-glTF-conv\\fccd29f7-1b4f-4a6e-ab82-392d1df94915\\output\\.fbm\\1E0F2860\\Trucks.fbm\\ImphenziaPalette01-256-Gradient.png"
        }
      },
      "name": "base_color_texture",
      "uri": "ImphenziaPalette01-256-Gradient.png"
    }
  ],
  "materials": [
    {
      "extras": {
        "FBX-glTF-conv": {
          "raw": {
            "properties": {
              "ambient": {
                "value": [
                  0.05087608844041824,
                  0.05087608844041824,
                  0.05087608844041824
                ]
              },
              "ambientFactor": {
                "value": 1.0
              },
              "bump": {
                "value": [
                  0.0,
                  0.0,
                  0.0
                ]
              },
              "bumpFactor": {
                "value": 0.0
              },
              "diffuse": {
                "texture": {
                  "index": 0
                },
                "value": [
                  0.8000000715255737,
                  0.0,
                  0.5381399989128113
                ]
              },
              "diffuseFactor": {
                "value": 1.0
              },
              "displacementColor": {
                "value": [
                  0.0,
                  0.0,
                  0.0
                ]
              },
              "displacementFactor": {
                "value": 1.0
              },
              "emissive": {
                "value": [
                  0.0,
                  0.0,
                  0.0
                ]
              },
              "emissiveFactor": {
                "value": 1.0
              },
              "normalMap": {
                "value": [
                  0.0,
                  0.0,
                  0.0
                ]
              },
              "reflection": {
                "value": [
                  0.8000000715255737,
                  0.0,
                  0.5381399989128113
                ]
              },
              "reflectionFactor": {
                "value": 0.0
              },
              "shadingModel": "Phong",
              "shininess": {
                "value": 0.07438002342041727
              },
              "specular": {
                "value": [
                  0.8000000715255737,
                  0.0,
                  0.5381399989128113
                ]
              },
              "specularFactor": {
                "value": 0.25
              },
              "transparencyFactor": {
                "value": 0.0
              },
              "transparentColor": {
                "value": [
                  0.0,
                  0.0,
                  0.0
                ]
              },
              "vectorDisplacementColor": {
                "value": [
                  0.0,
                  0.0,
                  0.0
                ]
              },
              "vectorDisplacementFactor": {
                "value": 1.0
              }
            },
            "type": "phong"
          }
        }
      },
      "name": "Submission_Diffuse_Shader"
    }
  ],
  "meshes": [
    {
      "name": "Cube.119",
      "primitives": [
        {
          "attributes": {
            "NORMAL": 1,
            "POSITION": 0,
            "TEXCOORD_0": 2
          },
          "indices": 3,
          "material": 0
        }
      ]
    },
    {
      "name": "Cube.121",
      "primitives": [
        {
          "attributes": {
            "NORMAL": 5,
            "POSITION": 4,
            "TEXCOORD_0": 6
          },
          "indices": 7,
          "material": 0
        }
      ]
    },
    {
      "name": "Cube.124",
      "primitives": [
        {
          "attributes": {
            "NORMAL": 9,
            "POSITION": 8,
            "TEXCOORD_0": 10
          },
          "indices": 11,
          "material": 0
        }
      ]
    },
    {
      "name": "Cube.126",
      "primitives": [
        {
          "attributes": {
            "NORMAL": 13,
            "POSITION": 12,
            "TEXCOORD_0": 14
          },
          "indices": 15,
          "material": 0
        }
      ]
    },
    {
      "name": "Cube.127",
      "primitives": [
        {
          "attributes": {
            "NORMAL": 17,
            "POSITION": 16,
            "TEXCOORD_0": 18
          },
          "indices": 19,
          "material": 0
        }
      ]
    },
    {
      "name": "Cube.128",
      "primitives": [
        {
          "attributes": {
            "NORMAL": 21,
            "POSITION": 20,
            "TEXCOORD_0": 22
          },
          "indices": 23,
          "material": 0
        }
      ]
    }
  ],
  "nodes": [
    {
      "mesh": 0,
      "name": "Dumper Truck Red"
    },
    {
      "mesh": 1,
      "name": "Concrete Truck Red"
    },
    {
      "mesh": 2,
      "name": "Small Truck"
    },
    {
      "mesh": 3,
      "name": "Dumper Truck Green"
    },
    {
      "mesh": 4,
      "name": "Concrete Truck Green"
    },
    {
      "mesh": 5,
      "name": "Base Truck"
    }
  ],
  "samplers": [
    {}
  ],
  "scenes": [
    {
      "name": "Scene",
      "nodes": [
        0,
        1,
        2,
        3,
        4,
        5
      ]
    }
  ],
  "textures": [
    {
      "name": "base_color_texture",
      "sampler": 0,
      "source": 0
    }
  ]
}